<?xml version="1.0" encoding="utf-8"?>
<!-- Generator: Adobe Illustrator 23.1.1, SVG Export Plug-In . SVG Version: 6.00 Build 0)  -->
<svg version="1.1" id="Layer_1" xmlns="http://www.w3.org/2000/svg" xmlns:xlink="http://www.w3.org/1999/xlink" x="0px" y="0px"
	 viewBox="0 0 1180 870.4" style="enable-background:new 0 0 1180 870.4;" xml:space="preserve">
<style type="text/css">
    @import url('https://fonts.googleapis.com/css?family=Roboto:300,400,700');
	.st0{clip-path:url(#SVGID_2_);}
	.st1{clip-path:url(#SVGID_4_);fill:url(#SVGID_5_);}
	.st2{clip-path:url(#SVGID_7_);}
	.st3{fill:none;}
	.st4{font-family:'Roboto';font-weight:300;}
	.st5{font-size:16px;}
	.st6{font-family:'Roboto';font-weight:600;fill:#4D4D4D}
	.st7{font-family:'Roboto';font-weight:400;}
	.st8{clip-path:url(#SVGID_9_);}
	.st9{fill:none;stroke:#000000;stroke-width:0.5;stroke-miterlimit:10;}
	.st10{fill:none;stroke:#000000;stroke-width:0.5;stroke-miterlimit:10;stroke-dasharray:1.003,1.003;}
	.st11{font-size:14px;}
	.st12{fill:#B3B3B3;}
	.st13{fill:#E6E6E6;}
	.st14{fill:none;stroke:#CCCCCC;stroke-miterlimit:10;}
	.st15{fill:#999999;}
	.st16{fill:none;stroke:#FFFFFF;stroke-miterlimit:10;}
	.st17{fill:none;stroke:#B3B3B3;stroke-miterlimit:10;}
	.st18{opacity:0.8;}
	.st19{clip-path:url(#SVGID_11_);fill:#8FAB72;}
	.st20{fill:#8FAB72;}
	.st21{filter:url(#Adobe_OpacityMaskFilter);}
	.st22{clip-path:url(#SVGID_13_);fill:url(#SVGID_15_);}
	.st23{clip-path:url(#SVGID_13_);mask:url(#SVGID_14_);fill:url(#SVGID_16_);}
	.st24{filter:url(#Adobe_OpacityMaskFilter_1_);}
	.st25{clip-path:url(#SVGID_18_);fill:url(#SVGID_20_);}
	.st26{clip-path:url(#SVGID_18_);mask:url(#SVGID_19_);fill:url(#SVGID_21_);}
	.st27{font-size:18px;font-family:'Roboto';font-weight:600;}
</style>
<g>
	<g>
		<g>
			<defs>
				<rect id="SVGID_1_" x="957.8" y="446.8" width="123.5" height="53"/>
			</defs>
			<clipPath id="SVGID_2_">
				<use xlink:href="#SVGID_1_"  style="overflow:visible;"/>
			</clipPath>
			<g class="st0">
				<g>
					<defs>
						<path id="SVGID_3_" d="M961.9,447.3c5,3.3,9.7,6.7,14.4,10.2c2.3,1.8,4.7,3.6,7,5.5s4.5,3.9,6.7,5.6c4.4,3.6,9.2,6.8,14.3,9.2
							c5.1,2.4,10.5,3.9,16.2,4.8c2.8,0.5,5.8,0.9,8.7,1.5c3,0.7,5.9,1.7,8.7,3.3c1.3,0.8,2.7,1.7,3.8,2.5c1.2,0.8,2.4,1.5,3.6,2.2
							c2.5,1.3,5.1,2.4,7.7,3.2c5.3,1.5,11.1,1.9,16.5,0.5c2.6-0.7,5.2-1.8,7.1-3.6c0.9-0.9,1.6-1.9,1.8-2.9c0.2-1-0.1-1.9-0.9-2.8
							l0,0c-0.5-0.6-0.5-1.4,0.1-1.9s1.4-0.5,1.9,0.1c0.6,0.6,1.1,1.4,1.5,2.3c0.3,0.9,0.4,1.9,0.2,2.9c-0.4,1.9-1.5,3.3-2.6,4.5
							c-2.4,2.3-5.3,3.5-8.3,4.4c-6,1.7-12.3,1.4-18.2-0.2c-2.9-0.8-5.8-1.9-8.5-3.4c-1.3-0.7-2.7-1.5-3.9-2.3
							c-1.3-0.9-2.4-1.6-3.6-2.3c-2.4-1.3-5-2.2-7.7-2.8c-2.7-0.6-5.6-0.9-8.5-1.4c-5.8-0.8-11.8-2.3-17.3-4.9
							c-5.5-2.5-10.6-5.8-15.2-9.5c-2.4-1.9-4.5-3.7-6.8-5.5s-4.6-3.5-7-5.2c-4.7-3.3-9.6-6.6-14.4-9.6l0,0
							c-1.2-0.8-1.6-2.4-0.9-3.7C959,446.8,960.6,446.4,961.9,447.3C961.9,447.2,961.9,447.2,961.9,447.3"/>
					</defs>
					<clipPath id="SVGID_4_">
						<use xlink:href="#SVGID_3_"  style="overflow:visible;"/>
					</clipPath>
					
						<linearGradient id="SVGID_5_" gradientUnits="userSpaceOnUse" x1="149.0403" y1="1.0002" x2="150.0403" y2="1.0002" gradientTransform="matrix(124.6758 0 0 124.6758 -17623.9141 348.6442)">
						<stop  offset="0" style="stop-color:#8FAB72"/>
						<stop  offset="0.3644" style="stop-color:#8FAB72"/>
						<stop  offset="1" style="stop-color:#8FAB72"/>
					</linearGradient>
					<rect x="957.4" y="446.4" class="st1" width="123.9" height="53.9"/>
				</g>
			</g>
		</g>
	</g>
</g>
<g>
	<defs>
		<rect id="SVGID_6_" x="-42" y="116.2" width="1080" height="449"/>
	</defs>
	<clipPath id="SVGID_7_">
		<use xlink:href="#SVGID_6_"  style="overflow:visible;"/>
	</clipPath>
	<g class="st2">
		
			<image style="overflow:visible;enable-background:new    ;" width="2103" height="874" id="pangolin.psd" xlink:href="pangolin.png"  transform="matrix(0.5136 0 0 0.5136 -44.0349 116.295)">
		</image>
	</g>
</g>
<rect x="386.3" y="121.8" class="st3" width="131" height="55.9"/>
<text transform="matrix(1 0 0 1 386.2559 135.4648)" class="st4 st5">A pangolin’s entire </text>
<text transform="matrix(1 0 0 1 386.2559 154.6648)" class="st4 st5">body is covered by </text>
<text transform="matrix(1 0 0 1 386.2559 173.8648)" class="st4 st5">scales</text>
<rect x="913.3" y="31.6" class="st3" width="116.5" height="37.2"/>
<text transform="matrix(1 0 0 1 913.2637 45.241)" class="st4 st5">Scales are made </text>
<text transform="matrix(1 0 0 1 913.2637 64.441)" class="st4 st5">of keratin</text>
<rect x="1006.8" y="259.1" class="st3" width="169.3" height="114"/>
<text transform="matrix(1 0 0 1 1007.7977 272.74)" class="st4 st5">Keratin is the same sub</text>
<text transform="matrix(1 0 0 1 1170.0978 272.74)" class="st4 st5">-</text>
<text transform="matrix(1 0 0 1 1007.7977 291.94)" class="st4 st5">stance that forms hair, </text>
<text transform="matrix(1 0 0 1 1007.7977 311.14)" class="st4 st5">nails, feathers, horns, </text>
<text transform="matrix(1 0 0 1 1007.7977 330.34)" class="st4 st5">claws, hooves, calluses, </text>
<text transform="matrix(1 0 0 1 1007.7977 349.54)" class="st4 st5">and the outer layer of </text>
<text transform="matrix(1 0 0 1 1007.7977 368.74)" class="st4 st5">skin among vertebrates</text>
<text transform="matrix(1 0 0 1 729.3164 540.9771)" class="st4 st5">Long nails</text>
<rect x="389" y="639.7" class="st3" width="351.7" height="37.2"/>
<text transform="matrix(1 0 0 1 394.0161 653.416)" class="st4 st5">TCM uses pangolin scales as a remedy for a wide range </text>
<text transform="matrix(1 0 0 1 394.0161 672.616)" class="st4 st5"> of diseases</text>
<text transform="matrix(1 0 0 1 412.0078 795.4004)" class="st4 st5">Scales </text>
<text transform="matrix(1 0 0 1 409.0078 816.3926)" class="st4 st5">are dried</text>
<text transform="matrix(1 0 0 1 546.0161 795.4004)" class="st4 st5">Ground into</text>
<text transform="matrix(1 0 0 1 546.0161 814.6004)" class="st4 st5">powder</text>
<rect x="673" y="781.7" class="st3" width="111.4" height="39.1"/>
<text transform="matrix(1 0 0 1 673.0078 795.3848)" class="st4 st5">Powder used in </text>
<text transform="matrix(1 0 0 1 673.0078 814.5848)" class="st4 st5">medicine </text>
<text transform="matrix(1 0 0 1 394.0161 627.3848)" class="st5 st27" >Medicinal use</text>
<rect x="110.5" y="38.5" class="st3" width="163.8" height="57.2"/>
<text transform="matrix(1 0 0 1 110.5014 62.2147)" class="st4 st5">Sizes vary from 30cm to 1m</text>
<text transform="matrix(1 0 0 1 110.5014 81.4147)" class="st4 st5"> depending on the species </text>
<text transform="matrix(1 0 0 1 830.6474 145.14)" class="st7 st5">Scale</text>
<text transform="matrix(1 0 0 1 935.0121 345.2455)" class="st4 st5">Ear</text>
<g>
	<g>
		<defs>
			<rect id="SVGID_8_" x="870.9" y="62" width="200.2" height="249"/>
		</defs>
		<clipPath id="SVGID_9_">
			<use xlink:href="#SVGID_8_"  style="overflow:visible;"/>
		</clipPath>
		<g class="st8">
			
				<image style="overflow:visible;enable-background:new    ;" width="770" height="966" id="scale.psd" xlink:href="scale.png"  transform="matrix(0.2578 0 0 0.2578 861.8459 62)">
			</image>
		</g>
	</g>
</g>
<path class="st9" d="M1099.9,251.1c-1.8-21.3-12-66.1-65.3-84.5"/>
<polygon points="1036.8,165.2 1037,165.6 1034.7,166.6 1035.8,168.8 1035.4,169 1034,166.4 "/>
<path class="st9" d="M430.5,186.5c-1,16.8,6.1,31.2,14.7,41.6"/>
<path class="st10" d="M807.8,534.7c28.7-8.8,27.2-33,23-42.4"/>
<polygon points="442.5,228 442.6,227.5 445,227.9 445.3,225.5 445.8,225.5 445.5,228.5 "/>
<text transform="matrix(1 0 0 1 167.4766 290.4653)" class="st4 st11">1m</text>
<line class="st9" x1="121" y1="275.5" x2="237" y2="275.5"/>
<path class="st12" d="M572.2,755.7c0.7,1.5,0.1,3.3-1.4,4s-3.3,0.1-4-1.4s-0.1-3.3,1.4-4S571.5,754.2,572.2,755.7"/>
<path class="st12" d="M569.2,747.2c0.5,1,0.1,2.2-0.9,2.7s-2.2,0.1-2.7-0.9s-0.1-2.2,0.9-2.7C567.5,745.7,568.7,746.2,569.2,747.2"
	/>
<path class="st12" d="M563.1,751.7c0.5,1,0.1,2.2-0.9,2.7s-2.2,0.1-2.7-0.9s-0.1-2.2,0.9-2.7C561.4,750.3,562.6,750.8,563.1,751.7"
	/>
<path class="st12" d="M561.6,737c1,2,0.1,4.4-1.9,5.3c-2,1-4.4,0.1-5.3-1.9c-1-2-0.1-4.4,1.9-5.3C558.2,734.1,560.6,735,561.6,737"
	/>
<path class="st12" d="M569.2,734.4c0.2,0.5,0,1.1-0.5,1.3s-1.1,0-1.3-0.5s0-1.1,0.5-1.3S569,733.9,569.2,734.4"/>
<path class="st12" d="M564.9,727.6c0.2,0.5,0,1.1-0.5,1.3s-1.1,0-1.3-0.5s0-1.1,0.5-1.3C564,726.9,564.6,727.1,564.9,727.6"/>
<path class="st12" d="M572.1,724.2c0.5,1,0.1,2.2-0.9,2.7s-2.2,0.1-2.7-0.9s-0.1-2.2,0.9-2.7C570.4,722.8,571.6,723.2,572.1,724.2"
	/>
<path class="st12" d="M575.9,736.8c0.2,0.5,0,1.1-0.5,1.3s-1.1,0-1.3-0.5s0-1.1,0.5-1.3C575,736.1,575.6,736.3,575.9,736.8"/>
<path class="st12" d="M580,745.3c0.6,1.2,0.1,2.7-1.2,3.3c-1.2,0.6-2.7,0.1-3.3-1.2c-0.6-1.2-0.1-2.7,1.2-3.3
	C577.9,743.6,579.4,744.1,580,745.3"/>
<path class="st12" d="M570.5,739.4c0.2,0.5,0,1.1-0.5,1.3s-1.1,0-1.3-0.5s0-1.1,0.5-1.3C569.6,738.6,570.2,738.9,570.5,739.4"/>
<path class="st12" d="M563.9,746.4c0.4,0.7,0,1.6-0.7,2s-1.6,0-2-0.7s0-1.6,0.7-2C562.6,745.3,563.5,745.6,563.9,746.4"/>
<path class="st12" d="M566.6,740.6c0.4,0.7,0,1.6-0.7,2s-1.6,0-2-0.7s0-1.6,0.7-2C565.4,739.6,566.3,739.9,566.6,740.6"/>
<path class="st12" d="M559.4,730.2c0.2,0.5,0,1.1-0.5,1.3s-1.1,0-1.3-0.5s0-1.1,0.5-1.3C558.6,729.5,559.2,729.7,559.4,730.2"/>
<path class="st12" d="M552.3,727c0.2,0.5,0,1.1-0.5,1.3s-1.1,0-1.3-0.5s0-1.1,0.5-1.3S552.1,726.5,552.3,727"/>
<path class="st12" d="M552.9,735c0.4,0.7,0,1.6-0.7,2s-1.6,0-2-0.7s0-1.6,0.7-2C551.6,734,552.5,734.3,552.9,735"/>
<path class="st12" d="M553.6,743.5c0.4,0.7,0,1.6-0.7,2s-1.6,0-2-0.7s0-1.6,0.7-2C552.4,742.5,553.3,742.8,553.6,743.5"/>
<path class="st12" d="M558.2,748.5c0.5,1,0.1,2.2-0.9,2.7s-2.2,0.1-2.7-0.9s-0.1-2.2,0.9-2.7C556.6,747.1,557.8,747.5,558.2,748.5"
	/>
<path class="st12" d="M547.7,735.8c0.2,0.5,0,1.1-0.5,1.3s-1.1,0-1.3-0.5s0-1.1,0.5-1.3S547.5,735.3,547.7,735.8"/>
<path class="st12" d="M548.3,727.8c0.2,0.5,0,1.1-0.5,1.3s-1.1,0-1.3-0.5s0-1.1,0.5-1.3S548.1,727.3,548.3,727.8"/>
<path class="st12" d="M550.4,720.7c0.4,0.7,0,1.6-0.7,2s-1.6,0-2-0.7s0-1.6,0.7-2C549.2,719.6,550.1,719.9,550.4,720.7"/>
<path class="st12" d="M557.9,715.4c0.2,0.5,0,1.1-0.5,1.3s-1.1,0-1.3-0.5s0-1.1,0.5-1.3C557.1,714.7,557.7,714.9,557.9,715.4"/>
<path class="st12" d="M558.9,724.4c0.4,0.7,0,1.6-0.7,2s-1.6,0-2-0.7s0-1.6,0.7-2C557.6,723.3,558.5,723.6,558.9,724.4"/>
<path class="st12" d="M556.3,730.6c0.2,0.5,0,1.1-0.5,1.3s-1.1,0-1.3-0.5s0-1.1,0.5-1.3C555.5,729.9,556.1,730.1,556.3,730.6"/>
<path class="st12" d="M562.5,720.4c0.1,0.2,0,0.5-0.2,0.7c-0.2,0.1-0.5,0-0.7-0.2c-0.1-0.2,0-0.5,0.2-0.7
	C562.1,720.1,562.4,720.2,562.5,720.4"/>
<path class="st12" d="M556.5,719.4c0.2,0.5,0,1.1-0.5,1.3s-1.1,0-1.3-0.5s0-1.1,0.5-1.3S556.3,718.9,556.5,719.4"/>
<path class="st12" d="M566.3,723.6c0.2,0.5,0,1.1-0.5,1.3s-1.1,0-1.3-0.5s0-1.1,0.5-1.3C565.4,722.9,566,723.1,566.3,723.6"/>
<path class="st12" d="M564.8,732.1c0.2,0.5,0,1.1-0.5,1.3s-1.1,0-1.3-0.5s0-1.1,0.5-1.3C563.9,731.4,564.5,731.6,564.8,732.1"/>
<path class="st12" d="M573.5,729.6c0.4,0.7,0,1.6-0.7,2s-1.6,0-2-0.7s0-1.6,0.7-2C572.3,728.5,573.2,728.8,573.5,729.6"/>
<path class="st12" d="M569.8,738c0.1,0.2,0,0.5-0.2,0.7c-0.2,0.1-0.5,0-0.7-0.2c-0.1-0.2,0-0.5,0.2-0.7
	C569.4,737.6,569.7,737.8,569.8,738"/>
<path class="st12" d="M574.1,747c0.1,0.2,0,0.5-0.2,0.7c-0.2,0.1-0.5,0-0.7-0.2c-0.1-0.2,0-0.5,0.2-0.7
	C573.7,746.7,574,746.8,574.1,747"/>
<path class="st12" d="M570.5,739.4c0.2,0.5,0,1.1-0.5,1.3s-1.1,0-1.3-0.5s0-1.1,0.5-1.3C569.6,738.6,570.2,738.9,570.5,739.4"/>
<path class="st12" d="M555.6,743.1c0.2,0.5,0,1.1-0.5,1.3s-1.1,0-1.3-0.5s0-1.1,0.5-1.3C554.8,742.4,555.4,742.6,555.6,743.1"/>
<path class="st12" d="M548.8,740.3c0.1,0.2,0,0.5-0.2,0.7c-0.2,0.1-0.5,0-0.7-0.2c-0.1-0.2,0-0.5,0.2-0.7
	C548.3,740,548.6,740.1,548.8,740.3"/>
<path class="st12" d="M545.3,744.7c-0.2-0.5,0-1.1,0.5-1.3s1.1,0,1.3,0.5s0,1.1-0.5,1.3C546.2,745.4,545.6,745.2,545.3,744.7"/>
<path class="st12" d="M556.6,752.1c-0.1-0.2,0-0.5,0.2-0.7c0.2-0.1,0.5,0,0.7,0.2s0,0.5-0.2,0.7C557,752.4,556.7,752.3,556.6,752.1"
	/>
<path class="st12" d="M552.9,748.9c0.2,0.5,0,1.1-0.5,1.3s-1.1,0-1.3-0.5s0-1.1,0.5-1.3C552,748.2,552.6,748.4,552.9,748.9"/>
<path class="st12" d="M557.8,759.3c0.4,0.7,0,1.6-0.7,2s-1.6,0-2-0.7s0-1.6,0.7-2C556.6,758.2,557.5,758.5,557.8,759.3"/>
<path class="st12" d="M563,758.5c0.2,0.5,0,1.1-0.5,1.3s-1.1,0-1.3-0.5s0-1.1,0.5-1.3C562.1,757.7,562.7,758,563,758.5"/>
<path class="st12" d="M554.1,753.8c0.2,0.5,0,1.1-0.5,1.3s-1.1,0-1.3-0.5s0-1.1,0.5-1.3S553.9,753.3,554.1,753.8"/>
<path class="st12" d="M565.6,763.9c0.2,0.5,0,1.1-0.5,1.3s-1.1,0-1.3-0.5s0-1.1,0.5-1.3C564.7,763.2,565.3,763.4,565.6,763.9"/>
<path class="st12" d="M577,760c0.4,0.7,0,1.6-0.7,2s-1.6,0-2-0.7s0-1.6,0.7-2C575.8,759,576.7,759.3,577,760"/>
<path class="st12" d="M571.8,751.5c0.4,0.7,0,1.6-0.7,2s-1.6,0-2-0.7s0-1.6,0.7-2C570.6,750.4,571.5,750.7,571.8,751.5"/>
<path class="st12" d="M578.7,752c0.2,0.5,0,1.1-0.5,1.3s-1.1,0-1.3-0.5s0-1.1,0.5-1.3S578.5,751.5,578.7,752"/>
<path class="st12" d="M584.5,754.8c0.2,0.5,0,1.1-0.5,1.3s-1.1,0-1.3-0.5s0-1.1,0.5-1.3S584.3,754.3,584.5,754.8"/>
<path class="st12" d="M586.4,747.2c0.2,0.5,0,1.1-0.5,1.3s-1.1,0-1.3-0.5s0-1.1,0.5-1.3C585.6,746.5,586.2,746.7,586.4,747.2"/>
<path class="st12" d="M574,742.1c0.2,0.5,0,1.1-0.5,1.3s-1.1,0-1.3-0.5s0-1.1,0.5-1.3C573.2,741.4,573.8,741.6,574,742.1"/>
<path class="st12" d="M583.9,737.4c0.2,0.5,0,1.1-0.5,1.3s-1.1,0-1.3-0.5s0-1.1,0.5-1.3C583.1,736.6,583.7,736.9,583.9,737.4"/>
<path class="st12" d="M579.5,737.3c0.2,0.5,0,1.1-0.5,1.3s-1.1,0-1.3-0.5s0-1.1,0.5-1.3C578.6,736.6,579.2,736.8,579.5,737.3"/>
<path class="st12" d="M578.9,729.2c0.1,0.2,0,0.5-0.2,0.7c-0.2,0.1-0.5,0-0.7-0.2c-0.1-0.2,0-0.5,0.2-0.7
	C578.5,728.9,578.8,729,578.9,729.2"/>
<path class="st12" d="M578.4,723.4c0.5,1,0.1,2.2-0.9,2.7s-2.2,0.1-2.7-0.9s-0.1-2.2,0.9-2.7S577.9,722.4,578.4,723.4"/>
<path class="st12" d="M572.6,718.4c0.2,0.5,0,1.1-0.5,1.3s-1.1,0-1.3-0.5s0-1.1,0.5-1.3S572.4,717.9,572.6,718.4"/>
<path class="st12" d="M564.2,714.6c0.2,0.5,0,1.1-0.5,1.3s-1.1,0-1.3-0.5s0-1.1,0.5-1.3C563.4,713.9,564,714.1,564.2,714.6"/>
<path class="st12" d="M567.3,718.7c0.2,0.5,0,1.1-0.5,1.3s-1.1,0-1.3-0.5s0-1.1,0.5-1.3C566.4,718,567,718.2,567.3,718.7"/>
<path class="st12" d="M563.1,712.4c0.4,0.7,0,1.6-0.7,2s-1.6,0-2-0.7s0-1.6,0.7-2C561.9,711.3,562.8,711.6,563.1,712.4"/>
<path class="st12" d="M577.9,720.1c-0.6-1.5,0.1-3.3,1.7-3.9c1.5-0.6,3.3,0.1,3.9,1.7c0.6,1.5-0.1,3.3-1.7,3.9
	C580.3,722.4,578.5,721.6,577.9,720.1"/>
<path class="st12" d="M593.6,720.4c-0.4-1,0.1-2.2,1.1-2.6c1-0.4,2.2,0.1,2.6,1.1c0.4,1-0.1,2.2-1.1,2.6
	C595.1,721.9,594,721.4,593.6,720.4"/>
<path class="st12" d="M605.9,726.2c-0.4-1,0.1-2.2,1.1-2.6c1-0.4,2.2,0.1,2.6,1.1c0.4,1-0.1,2.2-1.1,2.6
	C607.5,727.7,606.3,727.2,605.9,726.2"/>
<path class="st12" d="M580.3,734.5c-0.4-1,0.1-2.2,1.1-2.6c1-0.4,2.2,0.1,2.6,1.1c0.4,1-0.1,2.2-1.1,2.6
	C581.9,736,580.8,735.5,580.3,734.5"/>
<path class="st12" d="M586.6,715.2c-0.6-1.4,0.1-3.1,1.5-3.7c1.4-0.6,3.1,0.1,3.7,1.5c0.6,1.4-0.1,3.1-1.5,3.7
	C588.8,717.3,587.2,716.6,586.6,715.2"/>
<path class="st12" d="M598.8,743.1c-0.2-0.5,0-1.1,0.6-1.3c0.5-0.2,1.1,0,1.3,0.6c0.2,0.5,0,1.1-0.6,1.3
	C599.5,743.9,599,743.6,598.8,743.1"/>
<path class="st12" d="M602.7,750.2c-0.2-0.5,0-1.1,0.6-1.3c0.5-0.2,1.1,0,1.3,0.6c0.2,0.5,0,1.1-0.6,1.3
	C603.5,750.9,602.9,750.7,602.7,750.2"/>
<path class="st12" d="M595.3,753.2c-0.4-1,0.1-2.2,1.1-2.6c1-0.4,2.2,0.1,2.6,1.1c0.4,1-0.1,2.2-1.1,2.6
	C596.8,754.7,595.7,754.2,595.3,753.2"/>
<path class="st12" d="M582.1,761.4c-0.4-1,0.1-2.2,1.1-2.6c1-0.4,2.2,0.1,2.6,1.1c0.4,1-0.1,2.2-1.1,2.6
	C583.7,762.9,582.5,762.4,582.1,761.4"/>
<path class="st12" d="M592.2,740.4c-0.2-0.5,0-1.1,0.6-1.3c0.5-0.2,1.1,0,1.3,0.6c0.2,0.5,0,1.1-0.6,1.3
	C593,741.1,592.4,740.9,592.2,740.4"/>
<path class="st12" d="M588.7,731.6c-0.5-1.3,0.1-2.7,1.4-3.3c1.3-0.5,2.7,0.1,3.3,1.4c0.5,1.3-0.1,2.7-1.4,3.3
	C590.6,733.5,589.2,732.8,588.7,731.6"/>
<path class="st12" d="M597.8,738.1c-0.2-0.5,0-1.1,0.6-1.3c0.5-0.2,1.1,0,1.3,0.6c0.2,0.5,0,1.1-0.6,1.3
	C598.6,738.9,598,738.6,597.8,738.1"/>
<path class="st12" d="M604.8,731.5c-0.3-0.8,0.1-1.6,0.8-2c0.8-0.3,1.6,0.1,2,0.8c0.3,0.8-0.1,1.6-0.8,2
	C606,732.6,605.1,732.3,604.8,731.5"/>
<path class="st12" d="M601.7,737.1c-0.3-0.8,0.1-1.6,0.8-2c0.8-0.3,1.6,0.1,2,0.8c0.3,0.8-0.1,1.6-0.8,2
	C602.9,738.2,602,737.8,601.7,737.1"/>
<path class="st12" d="M608.2,747.9c-0.2-0.5,0-1.1,0.6-1.3c0.5-0.2,1.1,0,1.3,0.6c0.2,0.5,0,1.1-0.6,1.3
	C609,748.7,608.4,748.4,608.2,747.9"/>
<path class="st12" d="M615.1,751.6c-0.2-0.5,0-1.1,0.6-1.3c0.5-0.2,1.1,0,1.3,0.6c0.2,0.5,0,1.1-0.6,1.3
	C615.9,752.4,615.3,752.1,615.1,751.6"/>
<path class="st12" d="M615.1,743.5c-0.3-0.8,0.1-1.6,0.8-2c0.8-0.3,1.6,0.1,2,0.8c0.3,0.8-0.1,1.6-0.8,2
	C616.3,744.7,615.4,744.3,615.1,743.5"/>
<path class="st12" d="M614.9,735c-0.3-0.8,0.1-1.6,0.8-2c0.8-0.3,1.6,0.1,2,0.8c0.3,0.8-0.1,1.6-0.8,2
	C616.1,736.1,615.2,735.7,614.9,735"/>
<path class="st12" d="M610.6,729.7c-0.4-1,0.1-2.2,1.1-2.6c1-0.4,2.2,0.1,2.6,1.1c0.4,1-0.1,2.2-1.1,2.6
	C612.2,731.2,611,730.7,610.6,729.7"/>
<path class="st12" d="M620.3,743c-0.2-0.5,0-1.1,0.6-1.3c0.5-0.2,1.1,0,1.3,0.6c0.2,0.5,0,1.1-0.6,1.3
	C621.1,743.8,620.5,743.5,620.3,743"/>
<path class="st12" d="M619.2,751c-0.2-0.5,0-1.1,0.6-1.3c0.5-0.2,1.1,0,1.3,0.6c0.2,0.5,0,1.1-0.6,1.3
	C620,751.8,619.4,751.5,619.2,751"/>
<path class="st12" d="M616.6,758c-0.3-0.8,0.1-1.6,0.8-2c0.8-0.3,1.6,0.1,2,0.8c0.3,0.8-0.1,1.6-0.8,2
	C617.8,759.1,617,758.8,616.6,758"/>
<path class="st12" d="M578.4,758.2c-0.3-0.8,0.1-1.6,0.8-2c0.8-0.3,1.6,0.1,2,0.8c0.3,0.8-0.1,1.6-0.8,2
	C579.6,759.3,578.7,759,578.4,758.2"/>
<path class="st12" d="M608.9,762.8c-0.2-0.5,0-1.1,0.6-1.3c0.5-0.2,1.1,0,1.3,0.6c0.2,0.5,0,1.1-0.6,1.3
	C609.7,763.5,609.1,763.3,608.9,762.8"/>
<path class="st12" d="M608.5,753.8c-0.3-0.8,0.1-1.6,0.8-2c0.8-0.3,1.6,0.1,2,0.8c0.3,0.8-0.1,1.6-0.8,2
	C609.6,754.9,608.8,754.5,608.5,753.8"/>
<path class="st12" d="M611.4,747.7c-0.2-0.5,0-1.1,0.6-1.3c0.5-0.2,1.1,0,1.3,0.6c0.2,0.5,0,1.1-0.6,1.3
	C612.2,748.5,611.6,748.2,611.4,747.7"/>
<path class="st12" d="M604.6,757.5c-0.1-0.3,0-0.5,0.3-0.7c0.3-0.1,0.5,0,0.7,0.3c0.1,0.3,0,0.5-0.3,0.7
	C605,757.9,604.7,757.7,604.6,757.5"/>
<path class="st12" d="M610.5,758.9c-0.2-0.5,0-1.1,0.6-1.3c0.5-0.2,1.1,0,1.3,0.6c0.2,0.5,0,1.1-0.6,1.3
	C611.3,759.6,610.7,759.4,610.5,758.9"/>
<path class="st12" d="M601,754.1c-0.2-0.5,0-1.1,0.6-1.3c0.5-0.2,1.1,0,1.3,0.6c0.2,0.5,0,1.1-0.6,1.3
	C601.8,754.8,601.2,754.6,601,754.1"/>
<path class="st12" d="M603,745.7c-0.2-0.5,0-1.1,0.6-1.3c0.5-0.2,1.1,0,1.3,0.6c0.2,0.5,0,1.1-0.6,1.3
	C603.8,746.5,603.2,746.2,603,745.7"/>
<path class="st12" d="M594.1,747.7c-0.3-0.8,0.1-1.6,0.8-2c0.8-0.3,1.6,0.1,2,0.8c0.3,0.8-0.1,1.6-0.8,2
	C595.3,748.8,594.4,748.5,594.1,747.7"/>
<path class="st12" d="M598.4,739.5c-0.1-0.3,0-0.5,0.3-0.7c0.3-0.1,0.5,0,0.7,0.3c0.1,0.3,0,0.5-0.3,0.7
	C598.8,739.9,598.5,739.8,598.4,739.5"/>
<path class="st12" d="M594.6,730.2c-0.1-0.3,0-0.5,0.3-0.7c0.3-0.1,0.5,0,0.7,0.3c0.1,0.3,0,0.5-0.3,0.7
	C595,730.6,594.7,730.5,594.6,730.2"/>
<path class="st12" d="M597.8,738.1c-0.2-0.5,0-1.1,0.6-1.3c0.5-0.2,1.1,0,1.3,0.6c0.2,0.5,0,1.1-0.6,1.3
	C598.6,738.9,598,738.6,597.8,738.1"/>
<path class="st12" d="M612.8,735.3c-0.2-0.5,0-1.1,0.6-1.3c0.5-0.2,1.1,0,1.3,0.6c0.2,0.5,0,1.1-0.6,1.3
	C613.6,736,613,735.8,612.8,735.3"/>
<path class="st12" d="M619.5,738.5c-0.1-0.3,0-0.5,0.3-0.7c0.3-0.1,0.5,0,0.7,0.3c0.1,0.3,0,0.5-0.3,0.7
	C619.9,738.9,619.6,738.7,619.5,738.5"/>
<path class="st12" d="M623.2,734.3c0.2,0.5,0,1.1-0.6,1.3c-0.5,0.2-1.1,0-1.3-0.6c-0.2-0.5,0-1.1,0.6-1.3
	C622.4,733.5,623,733.8,623.2,734.3"/>
<path class="st12" d="M612.4,726.3c0.1,0.3,0,0.5-0.3,0.6s-0.5,0-0.7-0.3c-0.1-0.3,0-0.5,0.3-0.7C612,725.9,612.3,726,612.4,726.3"
	/>
<path class="st12" d="M584.3,752.2c0.1,0.3,0,0.5-0.3,0.7c-0.3,0.1-0.5,0-0.7-0.3c-0.1-0.3,0-0.5,0.3-0.7
	C584,751.8,584.2,751.9,584.3,752.2"/>
<path class="st12" d="M616,729.7c-0.2-0.5,0-1.1,0.6-1.3c0.5-0.2,1.1,0,1.3,0.6c0.2,0.5,0,1.1-0.6,1.3
	C616.8,730.4,616.2,730.2,616,729.7"/>
<path class="st12" d="M611.6,719c-0.3-0.8,0.1-1.6,0.8-2c0.8-0.3,1.6,0.1,2,0.8c0.3,0.8-0.1,1.6-0.8,2
	C612.8,720.2,612,719.8,611.6,719"/>
<path class="st12" d="M606.4,719.5c-0.2-0.5,0-1.1,0.6-1.3c0.5-0.2,1.1,0,1.3,0.6c0.2,0.5,0,1.1-0.6,1.3
	C607.2,720.3,606.7,720,606.4,719.5"/>
<path class="st12" d="M615,724.7c-0.2-0.5,0-1.1,0.6-1.3c0.5-0.2,1.1,0,1.3,0.6c0.2,0.5,0,1.1-0.6,1.3
	C615.8,725.4,615.2,725.2,615,724.7"/>
<path class="st12" d="M604.2,713.9c-0.2-0.5,0-1.1,0.6-1.3c0.5-0.2,1.1,0,1.3,0.6c0.2,0.5,0,1.1-0.6,1.3
	C605,714.7,604.4,714.5,604.2,713.9"/>
<path class="st12" d="M578.7,712.6c-0.3-0.8,0.1-1.6,0.8-2c0.8-0.3,1.6,0.1,2,0.8c0.3,0.8-0.1,1.6-0.8,2
	C579.9,713.7,579,713.3,578.7,712.6"/>
<path class="st12" d="M597.2,725.9c-0.3-0.8,0.1-1.6,0.8-2c0.8-0.3,1.6,0.1,2,0.8c0.3,0.8-0.1,1.6-0.8,2
	C598.4,727.1,597.5,726.7,597.2,725.9"/>
<path class="st12" d="M590.3,725c-0.2-0.5,0-1.1,0.6-1.3c0.5-0.2,1.1,0,1.3,0.6c0.2,0.5,0,1.1-0.6,1.3
	C591.1,725.7,590.5,725.5,590.3,725"/>
<path class="st12" d="M584.7,721.8c-0.2-0.5,0-1.1,0.6-1.3c0.5-0.2,1.1,0,1.3,0.6c0.2,0.5,0,1.1-0.6,1.3
	C585.5,722.6,584.9,722.3,584.7,721.8"/>
<path class="st12" d="M582.4,729.3c-0.2-0.5,0-1.1,0.6-1.3c0.5-0.2,1.1,0,1.3,0.6c0.2,0.5,0,1.1-0.6,1.3
	C583.1,730,582.6,729.8,582.4,729.3"/>
<path class="st12" d="M594.4,735.2c-0.2-0.5,0-1.1,0.6-1.3c0.5-0.2,1.1,0,1.3,0.6c0.2,0.5,0,1.1-0.6,1.3
	C595.2,735.9,594.7,735.7,594.4,735.2"/>
<path class="st12" d="M584.2,739.3c-0.2-0.5,0-1.1,0.6-1.3c0.5-0.2,1.1,0,1.3,0.6c0.2,0.5,0,1.1-0.6,1.3
	C585,740,584.5,739.8,584.2,739.3"/>
<path class="st12" d="M588.7,739.6c-0.2-0.5,0-1.1,0.6-1.3c0.5-0.2,1.1,0,1.3,0.6c0.2,0.5,0,1.1-0.6,1.3
	C589.5,740.4,588.9,740.1,588.7,739.6"/>
<path class="st12" d="M588.7,747.7c-0.1-0.3,0-0.5,0.3-0.7c0.3-0.1,0.5,0,0.7,0.3c0.1,0.3,0,0.5-0.3,0.7
	C589.1,748.1,588.8,748,588.7,747.7"/>
<path class="st12" d="M589,753.6c-0.4-1,0.1-2.2,1.1-2.6c1-0.4,2.2,0.1,2.6,1.1c0.4,1-0.1,2.2-1.1,2.6
	C590.5,755.1,589.4,754.6,589,753.6"/>
<path class="st12" d="M582,744.8c-0.4-1,0.1-2.2,1.1-2.6c1-0.4,2.2,0.1,2.6,1.1c0.4,1-0.1,2.2-1.1,2.6
	C583.5,746.3,582.4,745.8,582,744.8"/>
<path class="st12" d="M594.4,758.9c-0.2-0.5,0-1.1,0.6-1.3c0.5-0.2,1.1,0,1.3,0.6c0.2,0.5,0,1.1-0.6,1.3
	C595.2,759.7,594.6,759.4,594.4,758.9"/>
<path class="st12" d="M602.5,763.2c-0.2-0.5,0-1.1,0.6-1.3c0.5-0.2,1.1,0,1.3,0.6c0.2,0.5,0,1.1-0.6,1.3
	C603.3,763.9,602.8,763.7,602.5,763.2"/>
<path class="st12" d="M599.7,758.9c-0.2-0.5,0-1.1,0.6-1.3c0.5-0.2,1.1,0,1.3,0.6c0.2,0.5,0,1.1-0.6,1.3
	C600.5,759.7,600,759.4,599.7,758.9"/>
<path class="st12" d="M603.5,765.5c-0.3-0.8,0.1-1.6,0.8-2c0.8-0.3,1.6,0.1,2,0.8c0.3,0.8-0.1,1.6-0.8,2
	C604.7,766.6,603.8,766.2,603.5,765.5"/>
<path class="st13" d="M399.2,731.8c0,0,4.3-9.4,9.9-13.2s16.9-6.7,23-6.9c6.1-0.1,14.6-0.3,18.8,1.1c4.2,1.4,6.9,3.2,12,5.1
	c5.2,1.9,14.1,2.2,10.5,6.3c-3.5,4.1-3.2,4.5-6.9,10.1c-3.6,5.5-3.6,5.5-7.6,10c-3.9,4.4-3.6,4.8-7.8,8.8c-4.2,4-5.3,4.2-9.5,7.5
	s-5.7,4.5-10.8,5.9c-5.1,1.4-4.3,0.8-9.6-0.4c-5.2-1.2-7.5-4-12.6-6.6s-7.4-4.7-7.5-8c-0.1-3.2,1.1-4.9,0.2-6.8
	c-0.9-1.9-2.4-1.4-2.5-4C398.7,738.2,399.2,731.8,399.2,731.8"/>
<path class="st14" d="M403.7,754.1c8.5,5,19.2,5.5,28.8,3.7c9.7-1.8,19-7.7,25.1-15.4"/>
<path class="st14" d="M415.3,760.7c8.2,3.7,18.5,2.6,25.7-2.8"/>
<path class="st14" d="M404.2,751.4c13.8,4.2,29.2,3.1,42.2-3.1"/>
<path class="st14" d="M445.4,751.2c-13,5.7-28.2,6.3-41.6,1.6"/>
<path class="st14" d="M439.7,714.1c-15-1.2-30.5,6-39.3,18.2"/>
<path class="st14" d="M401.3,734.1c11-8.3,25.1-12.6,38.8-11.8"/>
<path class="st14" d="M401.4,732.4c11.4-10.4,27.1-15.8,42.5-14.6"/>
<path class="st14" d="M401.9,737.4c13.7-4.9,28.5-6.7,43-5.3"/>
<path class="st14" d="M401.6,735.8c11.9-6.5,25.7-9.2,39.1-7.8"/>
<path class="st14" d="M404.1,745.2c15.1,1.4,30.6-0.9,44.7-6.6"/>
<path class="st14" d="M403.8,747.4c15.9,1.8,32.2-0.8,46.8-7.4"/>
<path class="st14" d="M404,749.1c14.7,2.5,30,0.8,43.8-4.8"/>
<path class="st14" d="M404.4,743.1c13.9-8.1,32.5-1.7,47.3-8.2"/>
<path class="st14" d="M443.9,735.2c-14-1-28.3,0.6-41.7,4.8"/>
<path class="st14" d="M407.3,743.5c8.1-1.6,16.2-2.5,24.5-2.7"/>
<path class="st13" d="M469.1,727c0,0-4,12.6-15.7,22.5s-10.8,8.8-10.8,8.8l-16-18.3l18.1-25.8L469.1,727z"/>
<path class="st15" d="M738,741.8l-22.4-18.7l20.6-24.6c5.2-6.2,14.4-7,20.5-1.8l0,0c6.2,5.2,7,14.4,1.8,20.5L738,741.8z"/>
<path class="st13" d="M716.1,720.6l24,20L720,765c-5.5,6.6-15.4,7.5-22,2l0,0c-6.6-5.5-7.5-15.4-2-22L716.1,720.6z"/>
<path class="st16" d="M723,719.1c5.2-7.3,8.5-11.6,14.5-18.6c3.7-4.3,6.3-4.7,9-5s7.3,1.2,8.8,3.4"/>
<path class="st16" d="M725,717.3c0.8,0.6,1.6,1.1,2.5,1.7"/>
<path class="st16" d="M727.1,714.4c1.1,0.8,2.3,1.6,3.4,2.4"/>
<path class="st16" d="M729,712.1c1.3,0.9,2.6,1.9,3.8,2.8"/>
<path class="st16" d="M732.8,711.3c-0.6-0.4-1.2-0.7-1.8-1.1C731.4,710.5,732.3,710.9,732.8,711.3z"/>
<path class="st16" d="M738.6,731.6c1,0.7,1.9,1.4,2.9,2.1"/>
<path class="st16" d="M740.5,729.4c0.6,0.6,1.2,1.3,1.9,1.9"/>
<path class="st16" d="M744.4,727.9c0.3,0.3,0.5,0.6,0.8,0.9"/>
<path class="st16" d="M747.3,724c0.2,0.3,0.5,0.7,0.7,1"/>
<path class="st17" d="M738,739c-6.4,7.9-12.7,15.8-20,22.9c-2,2-4.2,3.9-6.9,4.7s-6,0.2-7.6-2.1"/>
<path class="st17" d="M706,762.7c0.9,1.8,2.7,3.2,4.8,3.6"/>
<path class="st17" d="M709.8,762.5c0.4,0.3,0.8,0.6,1.1,0.9c0.2,0.2,0.4,0.5,0.6,0.7c0.2,0.1,0.5,0.1,0.6,0.2c0.7,0.3,1.3,0.4,2,0.6
	"/>
<path class="st17" d="M713.5,760.5c-0.1,0.3,0.4,0.4,0.6,0.5c0.5,0.3,0.8,0.7,1.3,0.9c0.3,0.1,1.9,0.7,1.8,0.2"/>
<g class="st18">
	<g>
		<g>
			<defs>
				<rect id="SVGID_10_" x="642.1" y="213.8" width="51.9" height="68.2"/>
			</defs>
			<clipPath id="SVGID_11_">
				<use xlink:href="#SVGID_10_"  style="overflow:visible;"/>
			</clipPath>
			<path class="st19" d="M678,282c0,0-12-8-14-10s-4-3-5-4s-5-4-6-5l-5-5c1-1,0-5,0-5s-3-4-4-5s-3-3-1-3s1,0,1-2s1-4,1-4v-4l-1-6v-2
				l8-5l16-7l9.4-1.2c0,0,14.6,13.2,15.6,14.2s-2,3-3,5s-1,6-1,6l-1,4l-2,5v4l2,6l1,6l2,6c0,0,3,3,3,4S678,282,678,282"/>
		</g>
	</g>
</g>
<path class="st9" d="M873.1,112.4"/>
<g>
	<g>
		<path class="st9" d="M669.4,225.3c0,0,49-116.1,203.1-112.9"/>
		<g>
			<polygon points="870.9,114.4 870.5,114 872.3,112.4 870.5,110.7 870.8,110.3 873.1,112.4 			"/>
		</g>
	</g>
</g>
<path class="st13" d="M194,195.9c-1-1.3-1.6-2.4-1.9-3.8c-0.4-1.3,0.5-2.7,0.5-2.7s1.2,3.3,2.3,4.1s0.8-1.1,0.1-2.5
	c-0.7-1.5-0.1-3.3-0.6-4.9c-0.5-1.6-1.5-2.3-1.5-2.3l1-0.6c0,0,1.7-6.3,2.4-7.3s3.3-4,3.6-5.8c0.4-1.8-0.5-3.5,0-4.6
	s0.6-1.1,0.2-2.5c-0.4-1.5,0.5-2.1,1.2-3.5c0.7-1.5,1.7-2.8,1.8-2.2s1,3.9,1.8,5.9c0.8,2.1-0.1,3.6-0.1,3.6l-1,3.2l0.5,1.5l-0.6,1.5
	l-0.6,2.9c0,0-0.6,7-1.3,10.9s1.3,24.6,1.8,25.6s0.7,2.8,0.2,5.7s-1,8.6-1,8.6l0.8,24.8l1.3,0.2l0.1,0.9c0,0-0.5,3.4-0.8,4.6
	c-0.4,1.2-1.7,3.2-2.2,5c-0.3,1.1-0.2,2.5-0.1,3.4h9.6c0.4-0.6,0.6-1.4,0.8-1.9c0.4-1.2-0.6-3.3-0.8-4.5s-0.2-2.7,0-3.5
	c0.2-0.8,0.4-1.5,0.1-1.9c-0.2-0.5-0.1-2.9-0.1-2.9l1.9-0.5v-2l-0.4-17.1c0,0,0.4-5.6,0-7.3s0.4-3.8,0.9-5.1c0.4-1.3,0.4-0.9,0-1.7
	c-0.4-0.9,0-1.7,0.4-3s-0.4-1.7,0.4-2.1c0.9-0.4,0-3,0-3.8v-8.6l0.4-5.2l0.3-1.1l0.3,1.1l0.4,5.2v8.6c0,0.9-0.9,3.4,0,3.8
	c0.9,0.4,0,0.9,0.4,2.1c0.4,1.3,0.9,2.1,0.4,3c-0.4,0.9-0.4,0.4,0,1.7s1.3,3.4,0.9,5.1c-0.4,1.7,0,7.3,0,7.3l-0.4,17.1v2l1.9,0.5
	c0,0,0.1,2.4-0.1,2.9c-0.2,0.5-0.1,1.1,0.1,1.9c0.2,0.8,0.2,2.3,0,3.5s-1.2,3.3-0.8,4.5c0.2,0.5,0.4,1.3,0.8,1.9h9.6
	c0.1-0.9,0.2-2.2-0.1-3.4c-0.5-1.8-1.8-3.8-2.2-5c-0.4-1.2-0.9-4.6-0.9-4.6l0.1-0.9l1.3-0.2l0.8-24.8c0,0-0.5-5.7-1-8.6
	c-0.5-2.9-0.2-4.7,0.2-5.7c0.5-1,2.5-21.7,1.8-25.6c-0.7-3.9-1.3-10.9-1.3-10.9L227,173l-0.6-1.5l0.5-1.5l-1-3.2c0,0-1-1.6-0.1-3.6
	c0.9-2.1,1.7-5.3,1.8-5.9c0.1-0.6,1.1,0.7,1.8,2.2s1.6,2.1,1.2,3.5c-0.4,1.5-0.2,1.5,0.2,2.5c0.5,1.1-0.4,2.8,0,4.6s2.9,4.9,3.6,5.8
	c0.7,1,2.4,7.3,2.4,7.3l1,0.6c0,0-1,0.7-1.5,2.3s0.1,3.4-0.6,4.9c-0.7,1.5-1,3.4,0.1,2.5c1.1-0.8,2.3-4.1,2.3-4.1s0.9,1.3,0.5,2.7
	c-0.4,1.3-1,2.4-1.9,3.8c-1,1.3-1.2,2.9-0.1,2.2c1.1-0.7,3.8-2.2,4-3.4s1.5-5.8,1.5-5.8l-1.2-6.1l1-1.2c0,0-2.7-14.9-2.9-15.5
	s-1.9-6.9-1.9-6.9s-1.2-3.6-1-4.2c0.2-0.6-0.8-1.7-1-2.5c-0.1-0.8,0.2-7-0.4-8.1c-0.6-1.1-0.4-3.5-4.7-5s-9.3-4.2-9.3-4.2l0.4-2.3
	l-1.2-1.6l0.9-1.3l1.3-2.1c0,0,1.3,0.4,1.3-0.9v-4.3l-0.9,0.4c0,0,0.9-2.1,0-4.3c-0.9-2.1-1.7-4.3-3-4.7c-1.1-0.4-3-1-4.1-1
	s-3.1,0.6-4.1,1c-1.3,0.4-2.1,2.6-3,4.7s0,4.3,0,4.3l-0.9-0.4v4.3c0,1.3,1.3,0.9,1.3,0.9l1.3,2.1l0.9,1.3l-1.2,1.6l0.4,2.3
	c0,0-5,2.8-9.3,4.2s-4.1,3.9-4.7,5c-0.6,1.1-0.2,7.3-0.4,8.1c-0.1,0.8-1.2,1.9-1,2.5s-1,4.2-1,4.2s-1.7,6.3-1.9,6.9
	c-0.2,0.6-2.9,15.5-2.9,15.5l1,1.2l-1.2,6.1c0,0,1.2,4.6,1.5,5.8c0.2,1.2,2.9,2.7,4,3.4C195.3,198.8,195,197.2,194,195.9"/>
<path class="st20" d="M120.9,258.1c0,0-1.4,0.2-2.1,0.7s-2,1.4-1.7,0.6s0.4-2.5,1.7-4.3c1.3-1.8,1.4-2.4,2.4-3.1s1.2-1,2.3-1.7
	c1.1-0.7,1.3-1,2.9-1.7c1.5-0.7,3.1-0.7,4.9-1.7c1.8-1,2.1-1.3,3.6-1.5c1.4-0.2,2.1-0.6,3-0.7c0.8-0.1,2.7-0.7,4-1.2
	s3.2-1.1,3.2-1.1s-1.5-0.5-1.1-0.5c0.5,0,1.3-0.2,2.5-0.4c1.2-0.1,2.5-0.5,2.5-0.5s-0.1-0.8,1.3-1s2.3-0.4,2.3-0.4l-0.2-0.5
	c0,0,0.2-0.2,1.5-0.5c1.3-0.2,3.6-0.7,3.6-0.7l-1.5-0.4c0,0,0.8-0.2,2.1-0.6c1.3-0.4,1.9-0.5,2.4-0.6l1-0.2c0,0-0.8-0.2-1.1-0.2
	s1-0.4,1-0.4l1.8-0.4c0,0,1,0,1.4-0.2c0.5-0.2,0-0.5,0-0.5l0.5-0.1c0,0-0.4,0.2,1.4-0.5c1.8-0.7,2.3-0.8,2.3-0.8l1-0.2H168l1-0.4
	l1.3-0.2l0.6-0.2l0.5-0.1c0,0,0.7-0.8,1.2-1.2s1-0.4,1-0.4l1.2-0.4l0.7-0.1h-1.8c-0.6,0,0.8-0.4,0.8-0.4l3.6-0.6l1.5-0.4l-0.8-0.2
	l1.4-0.2c0,0,0.1-0.1,1.4-0.2l1.3-0.1c0,0,2-0.4,3.2-0.5s2.7-0.1,2.7-0.1l1.5,0.2l1-0.2h1.1l1.4,0.1c0,0-1.3-0.5-1-0.5
	c0.4,0,1.7,0.2,1.7,0.2s1.5,0.2,1.9,0.2s1.8,0.6,2.3,0.6s0.6-0.5,0.6-0.5l1.4,0.4c0,0,3.2,1.5,3.9,1.8c0.7,0.2,0.1-0.6,0.1-0.6
	l2.7,1.3c0,0,1.1,1.3,1.3,1.4c0.2,0.1,0.5-0.4,0.5-0.4s1.4,1,1.9,1.3c0.5,0.4,0.8,1.3,0.8,1.3l0.5,0.5l0.1-0.5l1.5,1.2l1.8,1.9
	c0,0,1.1,1,1.9,1.7c0.8,0.7,1.9,2.1,2.4,2.6s1.1,1.3,1.7,1.8c0.6,0.5,1.8,2.1,2.4,2.9c0.6,0.7,2.3,2.3,3.3,2.9
	c1.1,0.6,1.1,0.7,1.7,1.1s0.4-0.4,0.7,0.1c0.4,0.5,0.2,0.6,0.6,1.1s1.8,3.6,2.3,4.4c0.5,0.8,0.8,1.5,1.2,1.9s0.5,0.6,0.8,1
	c0.4,0.4,0.7,0.5,0.6,1c-0.1,0.5-0.5,1.2-1.1,1.3c-0.6,0.1-1.1,0-1.7-0.1c-0.6-0.1-3.1-2.3-3.7-2.4c-0.6-0.1-0.8-0.2-1.7-0.4
	c-0.8-0.1-2.1-0.1-3.1-0.8c-1-0.7-1.9-1.7-2.9-1.7s-1.1,0-1.7-0.1c-0.6-0.1-1.4-0.6-1.4-0.6l-0.7,0.4c0,0-0.2,0.2-0.5-0.2
	c-0.2-0.5,0.2-0.7-0.2-0.5s-0.5,0.4-0.8,0.2l-0.4-0.1c0,0-0.7,0.6-0.8,1.3c-0.1,0.7,0.4,1.5,0.4,1.5l0.6,0.5l-0.6,0.4l-0.1,0.6
	l0,1.4l-0.6,0.7v0.6h1l0.4,0.7l1,0.5c0,0,0.7,0.4,0.7,1.1s-0.5,0.7-0.6,1c-0.1,0.2-0.4,0.5-0.4,0.2c0-0.2,0.2-0.2-0.1-0.7
	c-0.4-0.5-0.8-0.5-0.8-0.5s-0.5,0-1.1,0.4s-2.1,1-3,1.2c-0.8,0.2-2.6,0-3.5-1c-0.8-1-1-1-1-1.9v-1.9c0,0,0.1-0.8-0.1-1.1
	c-0.2-0.2-0.5-0.6-0.8-1c-0.4-0.4-0.5-1-0.1-0.8c0.4,0.1-0.4-0.5-0.7-0.6c-0.4-0.1-1-0.5-1-0.7s0.4-0.2,0.6-0.5
	c0.2-0.2-0.4-0.2-0.6-0.5c-0.2-0.2-0.6-0.1-0.7-0.5c-0.1-0.4-0.4-0.6-0.4-0.7s0.5-0.4,0.5-0.4l-2.1-1.9c0,0-1.2,0.4-1.4,0.5
	s-1,0.6-1.4,0.6s-0.2,0,0-0.4s0.7-0.2,0.2-0.4c-0.5-0.1-1.7-0.5-1.9-0.4s-0.5,0.1-0.5,0.1l-2.1,0.8l-1.1,0.4l-0.2,2.3l0.8,1.8
	c0,0,0.4,0.7,1.2,1.7s1.5,1.7,1.5,1.7s1,1,1.2,1.7s0.4,1.2,0.2,1.5s-2.7,0.7-3.8,0.5s-2.9,0.6-4.3,0c-1.4-0.6-2.1-1.8-2.1-1.8
	s-0.6-1.5-0.5-3.1c0.1-1.5-0.1-3.1-0.1-3.1l-0.7-1.5l-0.8-1.7l-1.3,2.1c0,0,0.5-1.5,0-1c-0.5,0.6-1.8,1.5-1.8,1.5l-1.3,1.1l-0.7,1.2
	l-0.8,1.9l-0.2,1.5l0.6,0.7l0.8,0.1c0,0,1.3,0.5,1.5,0.8c0.2,0.4,0.5,0.4,0.5,0.6s0.4,0.2,0,0.2s-0.7-0.1-1.2-0.2s-1.2-0.2-1.2-0.2
	s-2.3,0.6-3.1,0.5s-0.8-0.5-1.7-0.2c-0.8,0.2-0.8,0.1-1.5,0.2s-1,0.4-1.5,0.2c-0.6-0.1-1.3-0.7-1.3-0.7v-2c0,0-0.1-1.4,0.4-2.6
	s0.6-1.5,1.8-2.7s1.5-1.4,1.9-1.8c0.4-0.4,0.7-0.8,0.7-0.8h-0.7l1-1l1.1-1.2l-0.1-0.5l0.4-1.1l0.1-1.5v-1c-0.7-0.2-1.1-0.4-1-0.6
	c0.1-0.2,0.4-1.1,0.4-1.1V245c0,0-1.8,1.2-1.7,0.7s-0.1-0.7-0.1-0.7l-1.1-0.2l-0.7-0.5c0,0-0.1,0-1,0.6c-0.8,0.6-1,0.8-1.2,0.7
	s-0.5-0.5-0.8-0.4c-0.4,0.1-1.2,0.5-1.2,0.5l-0.2-0.8c0,0-1.4,1.7-2,2s-1.3,1.1-1.3,0.7s0.2-0.1,0-0.4c-0.2-0.2-0.6-0.2-1.1,0
	s-0.7,0.8-1,0.6l-0.5-0.4c0,0-0.4,0.2-1.5,0.8c-1.2,0.6-1.7,1.2-1.7,0.8s0.4-0.8,0.1-0.8c-0.2,0-0.7,0.1-0.7,0.1s-0.7,0.5-1.5,0.7
	s-1.2,0.5-1.4,0.2c-0.2-0.2,0.1-0.4-0.8,0s-0.7,0.4-1.3,0.5s-0.7,0.5-1.1,0.5s-0.8-0.4-1.1-0.4c-0.2,0-0.7,0.4-1.1,0.6
	c-0.4,0.2-0.5,0.6-1.8,0.8l-1.3,0.2l-0.4-0.7l-0.7-0.2l-0.6,0.7c0,0-2.1,1.2-2.7,1.3s-1.9,0.4-1.7,0s0.6-0.6,0.6-0.6
	s-1.1-0.1-0.7-0.4c0.4-0.2,0.7-0.5,0.7-0.5s-1.5,1.2-2.5,1.2s-1.5-0.2-1.7-0.5s-0.4-0.6-0.4-0.6s-2.9,1.4-3.5,1.7
	c-0.6,0.2-0.8,0.6-0.8,0.2s-0.1-1.2-0.1-1.2s-0.4,0.4-1.3,0.8c-1,0.5-1.5,0.5-2,0.7s-1,0.1-1,0.1l-0.4-0.7c0,0-2.5,1.2-2.7,1.3
	s-0.6,0.5-0.6,0.5l-0.7-0.2c0,0-0.1,0.5-0.5,0.7s-1.2,0.6-1.5,0.8c-0.4,0.2-0.8,0.4-0.8,0.4l-0.8-0.2L120.9,258.1z"/>
<g>
	<rect x="983.5" y="527.1" class="st3" width="193.4" height="75.6"/>
	<text transform="matrix(1 0 0 1 983.5049 540.8216)"><tspan x="0" y="0" class="st4 st5">A pangolin’s tongue is </tspan><tspan x="0" y="19.2" class="st4 st5">attached near its pelvis and  </tspan><tspan x="0" y="38.4" class="st4 st5">last pair of ribs and is often  </tspan><tspan x="0" y="57.6" class="st4 st5">longer than its body</tspan></text>
</g>
<circle class="st10" cx="1075.9" cy="490.9" r="10.8"/>
<path class="st10" d="M914.3,412.1c17.3-7.7,32.9-44.8,30.9-61.8"/>
<line class="st10" x1="1076.5" y1="501.8" x2="1076.5" y2="523.6"/>
<g>
	<defs>
		<polygon id="SVGID_12_" points="511.8,737 493,737 493,741.9 511.8,741.9 511.8,746 519.9,739.4 511.8,732.9 		"/>
	</defs>
	<clipPath id="SVGID_13_">
		<use xlink:href="#SVGID_12_"  style="overflow:visible;"/>
	</clipPath>
	<defs>
		<filter id="Adobe_OpacityMaskFilter" filterUnits="userSpaceOnUse" x="493" y="732.9" width="26.8" height="13.1">
			<feColorMatrix  type="matrix" values="1 0 0 0 0  0 1 0 0 0  0 0 1 0 0  0 0 0 1 0"/>
		</filter>
	</defs>
	<mask maskUnits="userSpaceOnUse" x="493" y="732.9" width="26.8" height="13.1" id="SVGID_14_">
		<g class="st21">
			
				<linearGradient id="SVGID_15_" gradientUnits="userSpaceOnUse" x1="-225.1868" y1="788.5271" x2="-224.1806" y2="788.5271" gradientTransform="matrix(26.6698 0 0 -26.6698 6498.7056 21769.2988)">
				<stop  offset="0" style="stop-color:#000000"/>
				<stop  offset="2.942959e-02" style="stop-color:#222222"/>
				<stop  offset="7.846583e-02" style="stop-color:#565656"/>
				<stop  offset="0.1298" style="stop-color:#838383"/>
				<stop  offset="0.1824" style="stop-color:#A9A9A9"/>
				<stop  offset="0.2366" style="stop-color:#C8C8C8"/>
				<stop  offset="0.293" style="stop-color:#E0E0E0"/>
				<stop  offset="0.3525" style="stop-color:#F2F2F2"/>
				<stop  offset="0.417" style="stop-color:#FCFCFC"/>
				<stop  offset="0.496" style="stop-color:#FFFFFF"/>
				<stop  offset="1" style="stop-color:#FFFFFF"/>
			</linearGradient>
			<rect x="493" y="732.9" class="st22" width="26.8" height="13.1"/>
		</g>
	</mask>
	
		<linearGradient id="SVGID_16_" gradientUnits="userSpaceOnUse" x1="-225.1868" y1="788.5271" x2="-224.1806" y2="788.5271" gradientTransform="matrix(26.6698 0 0 -26.6698 6498.7056 21769.2988)">
		<stop  offset="0" style="stop-color:#8FAB72"/>
		<stop  offset="0.496" style="stop-color:#8FAB72"/>
		<stop  offset="1" style="stop-color:#8FAB72"/>
	</linearGradient>
	<rect x="493" y="732.9" class="st23" width="26.8" height="13.1"/>
</g>
<g>
	<defs>
		<polygon id="SVGID_17_" points="669.8,737 651,737 651,741.9 669.8,741.9 669.8,746 677.8,739.4 669.8,732.9 		"/>
	</defs>
	<clipPath id="SVGID_18_">
		<use xlink:href="#SVGID_17_"  style="overflow:visible;"/>
	</clipPath>
	<defs>
		<filter id="Adobe_OpacityMaskFilter_1_" filterUnits="userSpaceOnUse" x="651" y="732.9" width="26.8" height="13.1">
			<feColorMatrix  type="matrix" values="1 0 0 0 0  0 1 0 0 0  0 0 1 0 0  0 0 0 1 0"/>
		</filter>
	</defs>
	<mask maskUnits="userSpaceOnUse" x="651" y="732.9" width="26.8" height="13.1" id="SVGID_19_">
		<g class="st24">
			
				<linearGradient id="SVGID_20_" gradientUnits="userSpaceOnUse" x1="-225.1503" y1="788.5271" x2="-224.1441" y2="788.5271" gradientTransform="matrix(26.6698 0 0 -26.6698 6655.7056 21769.2988)">
				<stop  offset="0" style="stop-color:#000000"/>
				<stop  offset="2.942959e-02" style="stop-color:#222222"/>
				<stop  offset="7.846583e-02" style="stop-color:#565656"/>
				<stop  offset="0.1298" style="stop-color:#838383"/>
				<stop  offset="0.1824" style="stop-color:#A9A9A9"/>
				<stop  offset="0.2366" style="stop-color:#C8C8C8"/>
				<stop  offset="0.293" style="stop-color:#E0E0E0"/>
				<stop  offset="0.3525" style="stop-color:#F2F2F2"/>
				<stop  offset="0.417" style="stop-color:#FCFCFC"/>
				<stop  offset="0.496" style="stop-color:#FFFFFF"/>
				<stop  offset="1" style="stop-color:#FFFFFF"/>
			</linearGradient>
			<rect x="651" y="732.9" class="st25" width="26.8" height="13.1"/>
		</g>
	</mask>
	
		<linearGradient id="SVGID_21_" gradientUnits="userSpaceOnUse" x1="-225.1503" y1="788.5271" x2="-224.1441" y2="788.5271" gradientTransform="matrix(26.6698 0 0 -26.6698 6655.7056 21769.2988)">
		<stop  offset="0" style="stop-color:#8FAB72"/>
		<stop  offset="0.496" style="stop-color:#8FAB72"/>
		<stop  offset="1" style="stop-color:#8FAB72"/>
	</linearGradient>
	<rect x="651" y="732.9" class="st26" width="26.8" height="13.1"/>
</g>
</svg>
