<?xml version="1.0" encoding="utf-8"?>
<!-- Generator: Adobe Illustrator 25.4.6, SVG Export Plug-In . SVG Version: 6.00 Build 0)  -->
<svg version="1.1" id="Layer_1" xmlns="http://www.w3.org/2000/svg" xmlns:xlink="http://www.w3.org/1999/xlink" x="0px" y="0px"
	 viewBox="0 0 520 1585" style="enable-background:new 0 0 520 1585;" xml:space="preserve">
<style type="text/css">
    @import url('https://fonts.googleapis.com/css?family=Roboto:100,300,400,500,600,700');
	.st0{fill:url(#SVGID_1_);}
	.st1{fill:none;stroke:#919191;stroke-width:1.5;stroke-miterlimit:10;}
	.st2{fill:none;stroke:#919191;stroke-miterlimit:10;}
	.st3{font-family:'Roboto';font-weight:300;}
	.st4{font-size:14px;}
	.st5{fill:none;stroke:#000000;stroke-width:0.5;stroke-miterlimit:10;}
	.st6{font-family:'Roboto';font-weight:500;}
	.st7{fill:none;stroke:#FD3C00;stroke-width:0.75;stroke-miterlimit:10;}
	.st8{fill:#FD3C00;}
</style>
<g>
	<linearGradient id="SVGID_1_" gradientUnits="userSpaceOnUse" x1="269.31442" y1="1472.68945" x2="269.31442" y2="1382.21973">
		<stop  offset="0" style="stop-color:#FFFFFF"/>
		<stop  offset="1" style="stop-color:#F3CB9F"/>
	</linearGradient>
	<rect x="-18.22197" y="1418.52771" class="st0" width="575.07275" height="85.83176"/>
	<path class="st1" d="M-9.84316,1434.87659c0,0,12.05732-2.45227,20.43613-2.45227s20.23177-0.61316,27.58878,0
		c7.35701,0.61304,17.9838,1.08984,17.9838,1.08984"/>
	<path class="st1" d="M54.12194,1436.1709c0,0,2.58858-1.77112,2.9973-5.8584c0.40873-4.08716,0.27248-15.94019,1.90738-18.52869
		c1.63489-2.58862,1.49865-3.81482,2.45234-6.81201c0.95369-2.99731,1.77113-4.49597,2.86106-6.6759
		c1.08993-2.17981,0-8.17444,2.17986-10.21802s7.08453-7.22083,8.31069-9.53687s1.22617-3.13354,1.22617-3.13354
		s-0.81744,18.12-0.81744,21.79858c0,3.67847,0.95369,3.40601,1.77113,5.44958s2.45233,13.0791,0.54496,14.85022
		c-1.90737,1.77124-3.13354,10.4906-1.90737,12.53418c1.22617,2.0437,6.81204,1.36243,9.40062,4.08728
		s5.17715,4.67017,8.3107,4.44678"/>
	<path class="st1" d="M81.1697,1432.15186c0,0,12.87081-0.3407,17.29865,0c4.42783,0.34058,29.76864,0.81738,35.9676,1.29419
		c6.19896,0.47693,33.7196,2.52051,37.94308,1.43054c4.22346-1.08984,8.44693-4.49597,10.49054-4.08716
		c2.04361,0.40869,2.92918,1.49866,2.92918,1.49866"/>
	<path class="st1" d="M180.28099,1436.85217c0,0,6.53957-4.49597,9.94559-11.51245
		c3.40602-7.01636,6.33521-13.48779,7.15265-16.34888s1.22617-4.08716,1.49864-4.35974
		c0.27249-0.27246,0.20436-5.92639,1.77113-6.81201c1.56677-0.8855,2.11174-1.02185,2.11174-1.02185
		s4.35971-41.82593,4.35971-44.55066c0-2.72485-0.95369-4.49597-0.95369-4.49597s0.54497-2.72485,0.95369-4.22351
		s-1.90738-3.26978-1.77113-3.67847c0.13623-0.40869,1.90736-1.2262,2.45233-4.76843s5.58588-58.58362,5.44963-63.48828
		c-0.13623-4.90466-1.90736-7.08447-1.90736-7.08447s2.45233-0.95374,2.58858-2.58862
		c0.13623-1.63489-2.32457-3.05566-2.32457-3.05566s2.73329-4.02893,3.68698-11.24963
		c0.95367-7.22083,2.58856-36.78503,1.22617-42.64343"/>
	<path class="st1" d="M209.43654,1443.25549c0,0,12.67041-23.70593,13.28349-28.81494
		c0.61308-5.10913,2.56721-4.25696,1.99887-5.90918s-0.56834-3.28711-0.56834-3.49146c0-0.20447,2.45233-1.63489,1.83925-3.67859
		c-0.61308-2.04358,2.45233-51.29468,3.67851-53.13391c1.22617-1.83923,1.22617-1.83923,1.22617-1.83923s-1.6349-1.2262,0-3.26978
		c1.63489-2.04358,1.63489-2.04358,1.63489-2.04358s-0.20436-2.86108-0.81744-7.97009
		c-0.61308-5.10913,3.47414-57.83435,4.7003-62.33032c1.22617-4.49585,1.22617-4.49585,1.22617-4.49585
		s-2.24797,0.81738-1.63489-1.83923c0.61308-2.65674,2.85373-3.95044,2.85373-3.95044s-1.62756-3.40662-1.4232-10.55933
		c0.20436-7.15259,0.40872-41.89404,2.86107-46.39001"/>
	<path class="st1" d="M200.85336,1444.89038c0,0,8.17445-2.45239,14.10094-3.88293s4.08722-4.76843,8.37881-7.49329
		c4.29158-2.72473,6.13083-1.29419,10.42242-4.97278c4.29158-3.67847,7.97009-7.56128,7.97009-7.56128
		s-0.61308,5.65442-4.90468,9.77539c-4.29158,4.12109-8.58318,12.5-8.58318,12.5"/>
	<path class="st1" d="M215.15877,1432.15186c0,0,6.23557,1.51794,6.52266,2.72473"/>
	<path class="st1" d="M233.35838,1434.87659c0.60426-0.81531,15.5199-2.45227,21.44637-1.94141
		c5.92648,0.51086,23.72641-0.78333,23.72641-0.78333"/>
	<path class="st1" d="M527.17328,1429.49512c-4.08722,0.40869-17.77945-1.63489-21.86667-0.8175
		c-4.08722,0.8175-16.55325,2.31616-19.82303,0.88562c-3.26981-1.43054-7.56137-11.44421-7.97009-14.3053
		s-1.22617-2.65674-1.22617-6.33521s2.24796-22.68408,2.65668-24.11462s-0.40872-1.83923-1.22617-3.88281
		c-0.81744-2.0437-3.26978-21.66235-1.63489-19.41443c1.63489,2.24805,0-4.70032-1.43054-8.17444
		c-1.43051-3.47412,0.6131-9.19629,1.2262-14.50964c0.61307-5.31335-9.19626-20.23181-9.19626-20.23181
		s1.02179,8.17456-1.02182,14.91846s-3.06543,10.01367-2.86105,11.64856c0.20435,1.63489,0.20435,6.13086,0,12.67041
		c-0.20438,6.53955-0.6131,4.49597-1.43054,10.62683s0.81744,19.61865,0,23.29712c-0.81744,3.67859-2.24796,3.47412-2.24796,3.47412
		s0.20435,8.37891-2.65671,19.21008c-2.86105,10.83105-13.48785,12.46594-11.03552,13.89648c0,0-12.62527,1.43054-20.39102,0.40869
		c-7.76572-1.02173-11.85294,0.8175-17.57507-0.61304c-5.72211-1.43054-16.34888,0.20435-19.61868-2.45227
		c-3.26978-2.65674-10.83115-5.92651-11.85294-11.23987c-1.02182-5.31348-1.83926-10.01379,1.43051-12.05737
		c0,0-2.65668-0.40869-7.56137,12.26172c-4.90466,12.67041-15.12274,17.44824-19.82303,18.3291
		c-4.70032,0.88086-11.03552-0.03882-11.03552-0.03882c-6.94827,0.91968-33.92398-1.53271-37.19376-2.17969
		c-3.26978-0.64685-2.65671-13.86267-2.45233-18.1543c0.20435-4.2915,1.02179-8.58313,0-11.03552
		c-1.02182-2.45227-1.43054-2.65662-1.22617-6.7439c0.20435-4.08716-4.08725-9.60498-5.10904-10.42236
		c-1.02182-0.8175-2.04361,1.22607-3.26978,5.10901c-1.22617,3.88281-5.31342,7.15259-8.37881,12.26172
		c-3.06543,5.10901-1.22617,22.47974-1.83926,26.97559c-0.61307,4.49597-4.2916,6.44666-4.2916,6.44666"/>
	<path class="st1" d="M533.41736,1448.02393c0,0-39.50986-2.72485-48.50177-1.90747c-8.99188,0.8175-4.08722,4.70032-3.6785,6.33521
		s1.43054,8.17444,3.88287,11.64868c2.45233,3.47412,9.19626,9.80933,12.67041,11.44421
		c3.47412,1.63489,8.68665,2.04358,8.68665,2.04358"/>
	<path class="st1" d="M418.49817,1476.15759c0,0,3.47415-3.06543,6.33521-5.31335c2.86105-2.24805,4.70032,0,8.37881,0
		s5.31339-3.06543,10.6268-6.7439c5.31339-3.67859,8.78754-3.06543,12.26166-6.33521c3.47415-3.26978,3.06543-8.7876,3.06543-8.7876
		s1.22617,0.20435-3.26978,0s-29.83676,0.20435-33.92398,1.02185c-4.08722,0.81738-32.08475,1.2262-35.96759,0.81738
		c-3.88287-0.40869-8.37881-4.6001-10.21808-1.89124c-1.83923,2.70874,0,4.95667,2.24799,8.43079
		c2.24796,3.47424,6.53955,2.86108,5.31339,7.35706s-6.0267,0.80811-5.46567,6.9436"/>
	<path class="st1" d="M351.87637,1468.80066c0,0,7.76575-14.3053,6.53958-17.57507s-5.72214-6.02808-8.58319-5.26208
		c-2.86105,0.76611-17.9838,2.93774-22.88846,2.05627s-13.89658-1.29016-14.71402,1.36646
		c-0.81744,2.65674-2.45233-0.20435-0.81744,2.65674s5.31339,5.77356,5.72211,9.73291s-4.08722,8.86401-4.08722,8.86401"/>
	<path class="st1" d="M292.6116,1472.07043c0,0,5.51776-6.67993,6.53955-9.98169c1.02182-3.30188-1.02179-4.11926,0-8.0022
		c1.02182-3.88281,1.02182-2.24792,1.02182-3.88281s-16.14456-1.2262-23.09283-0.8175
		c-6.94827,0.40881-13.07913,2.45239-19.00562,2.86108c-5.92647,0.40869-14.10092,0-16.34889,1.2262
		s-8.36725,2.24792-8.36725,2.24792s0.39716,3.93433,2.64513,6.05444c2.24799,2.12012,4.08723,1.30261,8.17445,3.14185
		c4.08723,1.83923,6.13084,3.67847,8.37881,5.72217c2.24797,2.04358,10.01372,5.92639,15.73582,6.94824s0-0.40869,6.94827,1.43054
		c6.9483,1.83923,8.46365,0.96436,8.46365,0.96436"/>
	<path class="st1" d="M114.61289,1548.29712c6.94828-0.61304,14.10093-8.78748,16.14454-13.28345s10.0137-8.99194,12.46605-10.01367
		c2.45233-1.02185,4.49594-3.88293,6.53955-8.7876c2.04362-4.90466,6.53957-11.85291,11.23988-15.32703
		c4.7003-3.47412,17.77943-23.0929,19.27808-26.36267c1.49866-3.26978,1.56677-10.21802,1.56677-12.74683
		c0-2.52893-2.45233-5.03259-12.26167-6.42383c-9.80936-1.39111-33.3109-1.87854-44.9595-0.448s-23.91028-1.02185-32.08473-1.02185
		s-14.10529,0.54224-14.10529,0.54224s-1.02616,0.40198,0,3.81274s0.00436,5.03491,3.4785,6.36865s2.6567,5.01221,3.47414,6.03406
		c0.81744,1.02173,3.06542,5.31335,10.83115,6.7439s14.71402-1.83923,17.9838,3.88281"/>
	<path class="st1" d="M-9.84316,1451.63428c0,0,25.74953-3.59229,33.00435-2.61353c7.25483,0.97864,2.75888,3.43091,13.1813,2.61353
		c10.42243-0.8175,12.46604-3.23157,16.96199-1.3092c4.49595,1.92224,5.72212,1.51355,5.72212,4.37463
		s1.43053,6.52881-0.81745,9.90613s-6.13084,6.44275-10.0137,9.09949c-3.88287,2.65662-3.88287,6.33521-6.74393,8.58313
		c-2.86106,2.24792-8.952,3.26978-16.6355,2.04358"/>
	<path class="st1" d="M39.7187,1483.31921c0,0-2.76312,5.71313-8.07651,10.20911s-8.9919,6.53955-14.71402,7.5614
		c-5.72212,1.02173-14.10093-4.90466-18.59688,0"/>
	<path class="st1" d="M28.0393,1496.36621c0,0-9.27188,9.21948-15.19835,13.9198s-13.48785,6.94824-13.48785,6.94824"/>
	<path class="st1" d="M77.98051,1457.35632c0,0,10.26977,3.06543,12.72211,6.13086s0.81744,5.10901,11.23988,5.51782
		c10.42242,0.40869,14.71401-5.73218,19.0056-2.15088"/>
	<path class="st1" d="M286.48077,1515.19067c0,0-5.10904,1.22607-17.37073-2.45239s-4.49594-2.24792-10.6268-7.15259
		c-6.13083-4.90466-5.92647-3.06543-11.44421-7.35706c-5.51776-4.29163-12.26169-13.48779-15.12274-19.20996
		c-2.86107-5.72217-4.49596-3.47412-8.78754-8.37878c-4.2916-4.90466-5.92648-10.01379-6.08719-11.44421
		c-0.16071-1.43054,10.17441-0.9585,10.17441-0.9585s2.04361,0.72607,2.70779,1.96631
		c0.66417,1.24011,3.1165,4.24268,6.79501,8.82117c3.6785,4.57849,5.61993,5.39587,10.32025,8.66565
		c4.7003,3.26978,11.64859,7.05054,13.59003,14.20312"/>
	<path class="st1" d="M247.03903,1498.22864c0,0,4.52798,9.60498,8.90573,14.10095s7.44318,3.06543,9.69113,8.37878
		c2.24799,5.31335,7.39505,9.40063,12.2807,12.87476s7.33798-1.02173,11.42523,4.70032"/>
	<path class="st1" d="M194.23593,1463.19055c0,0-7.68785,5.40564-11.57072,11.94531
		c-3.88286,6.53955-10.42242,20.02734-13.07912,22.27539c-2.65671,2.24792-7.35701,5.5177-10.6268,10.42236
		c-3.26978,4.90466-6.74391,5.72217-7.76573,10.42249c-1.0218,4.70032-2.86105,6.33521-5.51775,10.01367
		s-7.97009,4.90466-8.78754,11.64856s4.49594,10.01367,1.22617,17.77942s-12.87476,14.10095-12.87476,14.10095"/>
	<path class="st1" d="M144.92288,1529.17285c0,0-1.57037,7.8844,0,13.40222c1.57037,5.5177,4.84015,8.37878,3.81834,16.34888
		s-1.43053,11.64856,1.83925,12.87476"/>
	<path class="st1" d="M193.40181,1460.6261c0,0,4.27634,11.33655,2.13817,19.56494
		c-2.13817,8.22827-7.42514,13.54163-9.74123,19.46814c-2.3161,5.92651-6.19896,10.21802-9.67311,12.67041
		c-3.47414,2.45227-11.44423,7.76575-12.67039,11.03552s-3.47415,9.60498-6.33521,12.67041s-3.29716,3.31714-4.26421,3.87549"/>
	<path class="st1" d="M212.50197,1459.40002c0,0-1.22618,3.46411-0.81746,7.4541c0.40872,3.99011,1.92657,13.57568,5.35706,19.92053
		c3.43048,6.34497,2.61304,7.77551,7.82425,11.45398c5.21123,3.67847,13.99876,8.58313,16.85982,11.23987
		s5.51776,3.88281,7.15265,8.7876c1.63489,4.90466,4.90466,8.99182,4.90466,8.99182"/>
	<path class="st1" d="M201.82323,1469.63135c0,0-2.60475,15.95935-6.89633,23.40234
		c-4.2916,7.44287-5.92648,9.69092-6.94829,14.18689c-1.0218,4.49585-4.70032,6.33521-4.2916,13.89648
		c0.40872,7.5614,1.43053,8.99194,0.81744,14.3053c-0.61308,5.31348-5.31339,10.21814-6.13083,12.87476"/>
	<path class="st1" d="M184.50446,1508.66089c0,0-7.75275,5.09924-10.0072,9.59521
		c-2.25447,4.49585-1.84575,8.95874-2.45883,10.91675s1.0218,7.68005-1.43053,14.42395
		c-2.45235,6.74402-6.13084,7.15271-6.74393,12.67041"/>
	<path class="st1" d="M168.35991,1520.70837c0,0,4.70401,11.03552,3.476,17.57507"/>
	<path class="st1" d="M206.37112,1469.02466c0,0-0.61308,17.35107,0,29.20398s0.61308,14.82605,3.06541,19.26599
		s7.74905,7.06348,8.98357,11.67822c1.2345,4.61462-1.40654,5.96326,5.11737,8.29321
		c6.52391,2.32983,12.67039-2.24805,14.50964,4.49585c1.83926,6.74402,2.24799,8.5238,2.24799,8.5238"/>
	<path class="st1" d="M201.87517,1465.53088c0,0-0.40872,28.81494,0,33.51526c0.40872,4.7002,1.43053,7.13623,0.40872,16.3407
		s-3.6785,5.73022-4.49594,14.10913c-0.81744,8.37878-0.02879,3.66382-1.64929,10.41504s-3.25539,5.11633-7.13824,9.6123
		c-3.88287,4.49597-8.24257,5.51782-8.71942,11.23987c-0.47684,5.72217,0,8.58325,0,8.58325"/>
	<path class="st1" d="M75.20884,1460.20349c0,0,7.21934,7.91052,6.98893,11.13611c-0.2304,3.22571-0.84481,8.75537,5.2225,15.36035
		c6.06731,6.60486,6.88453,5.73853,12.04402,9.66626c5.1595,3.92761,7.61715,8.07483,7.07954,13.6814"/>
	<path class="st1" d="M61.61498,1464.04346c0,0-0.1536,12.59546,2.53445,17.43396s2.68805,0.23047,3.07206,7.68018
		s-3.99529,8.83215-2.80406,18.81641c1.19123,9.98413-1.90974,6.83533,2.828,13.74744s8.65462,8.21777,5.88977,12.90259"/>
	<path class="st1" d="M67.18924,1488.54492c0,0-2.579,10.52002-6.49588,13.28491s-8.32321-0.03455-9.80651,6.16528
		c-1.4833,6.19971-4.55536,11.26868-9.24025,11.80627"/>
	<path class="st2" d="M53.70443,1504.1731c0,0-3.37926,5.72095-1.61283,10.09863c1.76643,4.37756,5.1457,9.44653,3.45607,14.51538
		c-1.68963,5.06897-5.0689,6.98901-5.0689,6.98901"/>
	<path class="st2" d="M79.56492,1517.23425c0,0-7.97009-10.42249-7.8679-14.91833c0.10218-4.49597-0.71526-13.1814-4.39377-13.28357
		"/>
	<path class="st2" d="M83.01289,1479.70752c0,0,7.99627,6.46375,14.53584,8.20093
		c6.53956,1.73706,12.77258-1.73718,17.16635,2.86096s4.39377,7.86792,4.39377,7.86792"/>
	<path class="st2" d="M33.60162,1491.71045c0,0-2.47033,7.57605-1.85725,12.46265c0.61308,4.88672,1.0442,4.27356,0.87973,8.56519
		c-0.16447,4.29163,2.50102,3.47412-0.97752,7.97009s-5.41997,4.80249-5.41997,4.80249"/>
	<path class="st2" d="M48.19546,1473.70532c0,0-4.18941,1.83923-7.25483,1.43054c-3.06542-0.40881-7.15265-1.26917-10.52461-0.68567
		c-3.37196,0.58337-9.60498,0-9.60498,0"/>
	<path class="st2" d="M62.71229,1477.15637c0,0,1.33553,4.54626,0,7.7002c-1.33552,3.15405-3.5835,1.66394-5.42275,6.85388"/>
	<path class="st1" d="M67.18924,1461.85229c0,0-0.29472,10.073,2.87288,12.5979c3.1676,2.5249,6.64175,3.95544,7.35701,7.12305
		s-1.53271,6.64172,2.86106,12.56812c4.39377,5.92651,6.94828,4.59814,8.37881,8.58325"/>
	<path class="st2" d="M78.22727,1490.50574c0,0,0.41802,2.81824,1.33765,8.13159c0.91963,5.31348,3.72834,2.96326,3.44797,8.58325
		c-0.28036,5.61987-1.30217,7.05042-1.30217,7.05042"/>
	<path class="st2" d="M71.59483,1463.19055c0,0,9.65887,6.28772,10.55155,8.86108"/>
	<path class="st2" d="M50.47877,1436.85217c0,0-3.11934,2.62256-8.83217,2.72473s-14.19382-3.60559-17.25924-0.98535"/>
	<path class="st2" d="M67.18198,1387.4425c0,0,3.49322,3.39429,5.33247,7.17493c1.83925,3.78064,3.39417,6.08679,3.39417,6.08679"/>
	<path class="st2" d="M77.92049,1404.73328c0,0-2.85152,4.08728-6.32566,5.82434c-3.47414,1.73706-7.25483,1.12402-7.25483,1.12402"
		/>
	<path class="st2" d="M60.2977,1406.99951c0,0,4.04231,2.33191,5.47284,6.31702c1.43053,3.98499,1.43053,8.37878,4.49595,10.93335
		c3.06542,2.55444,5.64215,2.24792,5.64215,2.24792"/>
	<path class="st2" d="M64.34,1415.7688c0,0-0.44377,9.29846,3.76316,11.9552c4.20693,2.65662,7.10567,1.43054,7.10567,1.43054"/>
	<path class="st2" d="M154.52066,1507.82593c0,0-10.47974,1.02954-13.74953,4.70801
		c-3.26978,3.67847-5.2668,7.31995-9.78604,7.44067"/>
	<path class="st2" d="M116.6565,1535.77612c0,0,3.26978-7.40417,7.05047-8.5282s5.05626-1.86047,7.27812-3.14319
		c2.22186-1.28284,2.83775-2.27234,4.57483-2.37451s9.69014-0.44507,9.85193,1.7699"/>
	<path class="st2" d="M122.8781,1527.59534c-2.26857,2.67957-7.70042,0.90771-8.98048-0.34741"/>
	<path class="st2" d="M139.59682,1513.90527c0,0-3.83253,0.55396-6.48923,0"/>
	<path class="st2" d="M181.44405,1469.63135c0,0-4.90572,5.91321-9.40366,8.56982
		c-4.49792,2.65674-11.84731,4.39209-12.71965,6.23218c-0.87234,1.84021-1.38326,2.53601-4.24431,2.34131
		c-2.86105-0.19458-5.74246,0.6228-7.67372,3.27954s-8.87955,14.61182-15.31693,16.75757"/>
	<path class="st2" d="M129.91414,1493.83484c0,0,2.47818-2.61401,6.97414-2.12439c4.49594,0.4895,9.16449-1.15259,11.39586-2.6781"
		/>
	<path class="st2" d="M180.93623,1459.40002c0,0,0.60498,2.13501-2.56261,5.20581c-3.1676,3.0708-7.97009,1.25806-10.42244,5.02551
		c-2.45233,3.76733-3.37195,7.85461-7.8679,8.05896"/>
	<path class="st2" d="M149.96739,1471.3551c0,0,2.35016,2.65674,7.97009,2.35022c5.61993-0.30664,9.38908-3.05432,9.38908-3.05432"
		/>
	<path class="st2" d="M201.74811,1495.7688c0,0-0.79256,7.05798-3.04054,11.04297c-2.24797,3.98511-4.24297,2.93701-4.47163,7.0885
		c-0.22867,4.15137-2.47664,10.07788-4.8268,10.48657"/>
	<path class="st2" d="M199.26761,1523.83557c0,0-0.45786,12.91516,0.97267,15.16321
		c1.43053,2.24792,1.94144,7.56128,1.43053,9.29834c-0.51089,1.73706,0.71527,8.27673,3.26979,10.62683"/>
	<path class="st2" d="M220.08571,1535.77612c0,0-0.22675,7.41199-1.65727,10.1709s-1.94142,6.23303,0,8.88965"/>
	<path class="st2" d="M225.45309,1498.63733c0,0-0.38292,4.49597,2.78468,8.17444c3.1676,3.67859,7.94701,2.12976,9.08253,7.09351
		c1.13554,4.96387,2.46388,9.45984,5.22276,12.21863c2.75888,2.75891,3.78069,3.1676,3.26978,4.90479"/>
	<path class="st2" d="M228.23778,1506.81177c0,0,2.24799,2.0437,2.04362,6.53955c-0.20436,4.49597,1.32834,7.35706,1.32834,7.35706"
		/>
	<path class="st2" d="M230.54755,1476.72473c0,0,4.84288,2.60046,6.78432,4.54187c1.94144,1.94153,7.97009,9.19629,12.46603,8.99194
		"/>
	<path class="st2" d="M245.6302,1476.72473c0,0,7.43748,0.96558,10.29854,2.80481s0.71527,5.41565,8.37881,5.92651"/>
	<path class="st2" d="M215.77174,1484.09021c0,0,1.0218,5.24866,0.51089,11.073c-0.51089,5.82434-3.98503,10.07617-2.04361,14.59204
		"/>
	<path class="st2" d="M197.9631,1406.99951c0,0,6.69621,2.84827,10.57907,3.05261c3.88287,0.20447,9.87793,0.23303,14.03041-1.03076
		"/>
	<path class="st2" d="M225.43858,1402.51941c0,0-9.8712,1.49866-19.33995,0"/>
	<path class="st2" d="M199.11905,1402.85242c0,0,3.23297,2.52808,6.97958,2.52808"/>
	<path class="st2" d="M205.34932,1339.84863c0,0,11.70418,2.86108,20.08926,2.86108"/>
	<path class="st2" d="M230.89449,1346.38818c0,0-11.37611,1.77112-19.95929,0"/>
	<path class="st2" d="M211.60793,1258.86316c0,0,5.86682,0.60327,15.13121,1.14832c9.26437,0.54492,10.08182,0,10.08182,0"/>
	<path class="st2" d="M235.04982,1265.86975c0,0-5.9946,1.77124-11.58047,0.95374s-8.07539-0.36902-8.07539-0.36902"/>
	<path class="st2" d="M95.81165,1434.87659c0,0,12.26168,0.01843,16.96199,0.3158"/>
	<path class="st2" d="M74.05387,1453.8822c0,0,2.75217-1.63489,12.15279-2.04358"/>
	<path class="st2" d="M104.29264,1449.99939c0,0,17.47289-0.04724,23.8081-1.14758"/>
	<path class="st2" d="M281.37173,1432.15186c0,0-2.45233,6.74597-13.1813,6.06372"/>
	<path class="st2" d="M281.37173,1401.77014c0,0,10.99957,3.18689,17.14838-2.18726"/>
	<path class="st2" d="M283.00662,1405.38049c0,0,6.13083,21.04956,18.80124,25.375"/>
	<path class="st2" d="M375.03476,1412.80554c0,0-1.49606,8.58325,2.59116,12.67041
		c4.08722,4.08728,11.44421,5.99463,18.59686,6.6759"/>
	<path class="st1" d="M371.08633,1454.90405c0,0,5.3187,5.30273,3.68115,9.70178c-1.63751,4.39917-2.65405,9.91687,0,11.55176"/>
	<path class="st1" d="M361.48135,1458.1626c0,0-3.6785,15.33838-13.89655,20.44739"/>
	<path class="st1" d="M356.37854,1470.04382c0,0-8.38501,5.50073-11.85916,6.31812
		c-3.47415,0.8175-11.03552,5.31348-13.43677,8.83862c-2.40125,3.52527-3.11652,7.71472-4.85358,7.5614"/>
	<path class="st1" d="M341.67239,1477.41431c0,0-5.73621,9.98315-6.40036,16.01184
		c-0.66418,6.02869,2.40125,7.61243,1.07288,13.48779"/>
	<path class="st1" d="M298.86722,1462.83813c0,0,0.07959,11.45032-0.53351,18.56677
		c-0.61307,7.11658-2.45233,14.57581-8.48099,16.82373"/>
	<path class="st1" d="M297.82281,1481.87976c0,0,7.66354,5.61987,7.86792,17.4729c0.20435,11.85291-6.38544,13.0791-6.82013,13.0791
		"/>
	<path class="st1" d="M305.65512,1501.39941c0,0,0.98669,14.4043,5.0582,17.77625c4.07147,3.37195,10.8154,2.24805,7.6478,6.84607"
		/>
	<path class="st1" d="M298.8504,1467.88208c0,0,9.59921,4.09631,10.82538,8.84265s5.10901,9.3717,9.09406,7.36548"/>
	<path class="st1" d="M303.34058,1470.63989c0,0-0.81744,8.78748,4.29156,14.81616c5.10904,6.02869,9.19629,3.98511,7.76575,9.60498
		"/>
	<path class="st1" d="M338.42447,1483.80505c0,0-0.03592,13.81055,2.10986,14.42358"/>
	<path class="st1" d="M370.16672,1458.68469c0,0-5.61993,23.60376-1.83926,29.83679c3.7807,6.23303,9.60501,4.49597,8.68536,10.729
		c-0.91962,6.23303-0.41901,11.64856,0.09705,12.36377"/>
	<path class="st2" d="M360.47986,1461.41833c0,0-1.96173,24.96582-9.82965,28.84448"/>
	<path class="st1" d="M367.01984,1483.49377c0,0-4.51666,8.29749-1.24689,14.12183c3.26978,5.82422,6.64175,5.21118,4.2916,10.52454
		"/>
	<path class="st1" d="M364.58493,1491.01685c0,0-1.46869,9.45972-7.13971,13.24048
		c-5.67102,3.78064-10.57568,6.44055-11.39313,9.45325"/>
	<path class="st1" d="M458.07614,1455.51709c0,0-3.54227,16.396-6.53955,20.32349
		c-2.99731,3.92737-3.13354,7.46973-4.35971,10.05823c-1.22617,2.58862-5.78958,5.22327-10.15286,7.74243
		c-4.36331,2.51917-6.741,9.15149-13.41681,10.65015"/>
	<path class="st1" d="M471.83649,1453.06482c0,0,3.13354,17.90845,0.95367,24.34949
		c-2.17984,6.44092-6.53955,4.95068-6.81204,12.84851c-0.27249,7.89771-4.46295,14.98218-6.6593,15.79968"/>
	<path class="st1" d="M461.20969,1464.60583c0,0-6.40332,9.47217-6.26709,15.92761c0.13626,6.45532,4.76843,2.52234,0.54498,10.4834
		c-4.22348,7.96106-5.44965,5.58325-6.13086,10.38257"/>
	<path class="st1" d="M475.51498,1477.41431c0,0-1.08994,4.26111,0.68121,9.57446c1.77112,5.31335,3.68375,5.58582,3.34052,11.23987
		s2.1091,10.01367,2.38159,10.55872"/>
	<path class="st1" d="M485.5968,1469.27747c0,0,3.95099,2.04358,4.49594,9.33252c0.54498,7.28882-1.49863,8.64771,1.49866,13.5542"
		/>
	<path class="st2" d="M455.8197,1464.60583c0,0-4.82809,6.03406-7.55289,7.80518c-2.72482,1.77112-4.76843-0.81592-8.71942,3.81555
		c-3.95099,4.63135-2.3161,4.99829-5.04092,7.26721"/>
	<path class="st2" d="M457.99127,1470.76855c0,0-0.10324,7.08862,1.24265,9.40271c1.34592,2.31396,2.57208,3.40393,1.89087,8.17236"
		/>
	<path class="st2" d="M483.14447,1459.9873c0,0-2.99728,6.42908-2.86105,10.65259c0.13623,4.22339,4.08722,3.84692,2.86105,9.89355"
		/>
	<path class="st2" d="M462.64023,1341.27917c0,0,6.26093,11.79944,12.95663,14.75171"/>
	<path class="st2" d="M473.5614,1354.86462c0,0-8.35471,14.20764-12.19247,16.25122"/>
	<path class="st2" d="M478.944,1384.80811c0,0-14.46454-8.44385-16.30377-14.64429"/>
	<path class="st2" d="M475.59686,1382.70239c0,0-3.44189,9.2583-16.47589,12.52808"/>
	<path class="st2" d="M459.31882,1397.27417c0,0,10.58817,20.32178,19.62518,22.42261"/>
	<path class="st2" d="M459.65421,1408.48547c0,0-0.07941,22.84888-17.65448,25.02869"/>
	<path class="st2" d="M464.88818,1413.62305c0,0,9.52786,9.12817,15.39072,8.85571"/>
	<path class="st2" d="M515.36542,1432.93518c0,0-15.12271,0.91968-20.64047,1.94141
		c-5.51776,1.02185-19.54175-0.9707-19.54175-0.9707"/>
</g>
<image style="overflow:visible;" width="2000" height="3793" id="AI_x5F_Image.psd" xlink:href="../img/tree.jpg"  transform="matrix(0.29272 0 0 0.29272 -33.68368 -14.01601)">
</image>
<text transform="matrix(1 0 0 1 137.89079 1268.55542)" class="st3 st4">Nodes</text>
<text transform="matrix(1 0 0 1 165.27103 1374.77808)" class="st3 st4">Culm</text>
<text transform="matrix(1 0 0 1 82.9028 1563.62756)" class="st3 st4">Roots</text>
<text transform="matrix(1 0 0 1 430.10352 1309.87659)" class="st3 st4">New shoot</text>
<text transform="matrix(1 0 0 1 276.29373 1375.63245)" class="st3 st4">buds</text>
<line class="st5" x1="183.92239" y1="1263.5835" x2="217.0416" y2="1263.5835"/>
<line class="st5" x1="401.20712" y1="1443.47949" x2="401.20712" y2="1520.70837"/>
<text transform="matrix(1 0 0 1 126.16802 1217.70825)" class="st6 st4">Mature cane</text>
<g>
	<text transform="matrix(1 0 0 1 373.18539 1536.78625)" class="st3 st4">Rhizomes</text>
</g>
<g>
	<text transform="matrix(1 0 0 1 437.91614 60.0107)" class="st3 st4">34m</text>
</g>
<g>
	<text transform="matrix(1 0 0 1 435.85086 963.05206)"><tspan x="0" y="0" class="st3 st4">Human</tspan><tspan x="0" y="16.7998" class="st3 st4">for scale</tspan></text>
</g>
<circle class="st7" cx="237.60097" cy="1032.36426" r="48.70117"/>
<g>
	<g>
		<line class="st7" x1="237.60097" y1="1081.06543" x2="237.60097" y2="1173.73474"/>
		<g>
			<polygon class="st8" points="234.53358,1171.24963 235.0829,1170.73804 237.60023,1173.4469 240.1183,1170.73804 
				240.66762,1171.24963 237.60023,1174.54822 			"/>
		</g>
	</g>
</g>
</svg>
