<?xml version="1.0" encoding="utf-8"?>
<!-- Generator: Adobe Illustrator 25.4.6, SVG Export Plug-In . SVG Version: 6.00 Build 0)  -->
<svg version="1.1" id="Layer_1" xmlns="http://www.w3.org/2000/svg" xmlns:xlink="http://www.w3.org/1999/xlink" x="0px" y="0px"
	 viewBox="0 0 520 315.15152" style="enable-background:new 0 0 520 315.15152;" xml:space="preserve">
<style type="text/css">
    @import url('https://fonts.googleapis.com/css?family=Roboto:100,300,400,500,600,700');
	.st0{font-family:'Roboto';font-weight:500;}
	.st1{font-size:14px;}
	.st2{font-family:'Roboto';font-weight:400;}
	.st3{fill:none;stroke:#000000;stroke-miterlimit:10;}
	.st4{fill:none;stroke:#000000;stroke-linecap:round;stroke-miterlimit:10;stroke-dasharray:0,2;}
	.st5{fill:none;stroke:#E69D33;stroke-width:1.7;stroke-miterlimit:10;}
	.st6{fill:#E3E3E3;}
	.st7{fill:url(#SVGID_1_);}
</style>
<image style="overflow:visible;" width="1013" height="803" xlink:href="../img/poles.jpg"  transform="matrix(0.37442 0 0 0.37442 8.2458 -12.63656)">
</image>
<text transform="matrix(1 0 0 1 69.71533 304.92358)" class="st0 st1">Mao Jue</text>
<text transform="matrix(1 0 0 1 238.78516 304.92358)" class="st0 st1">Kao Jue</text>
<text transform="matrix(1 0 0 1 76.75977 285.93286)" class="st2 st1">75mm</text>
<polyline class="st3" points="154.43387,211.78696 154.43387,282.18982 120.31741,282.18982 "/>
<polyline class="st3" points="40.26201,216.302 40.26201,282.18982 73.76166,282.18982 "/>
<text transform="matrix(1 0 0 1 244.11328 285.93286)" class="st2 st1">40mm</text>
<polyline class="st3" points="304.54324,229.38016 304.54324,282.18982 287.58554,282.18982 "/>
<polyline class="st3" points="224.45529,226.23943 224.45529,282.18979 240.03217,282.18979 "/>
<line class="st4" x1="46.33999" y1="183.00063" x2="30.11479" y2="172.03961"/>
<line class="st3" x1="56.50035" y1="189.86452" x2="46.33999" y2="183.00063"/>
<g>
	<text transform="matrix(1 0 0 1 5.92139 168.62427)" class="st2 st1">12mm</text>
</g>
<line class="st4" x1="228.85783" y1="201.92256" x2="212.63264" y2="190.96155"/>
<line class="st3" x1="239.0182" y1="208.78645" x2="228.85783" y2="201.92256"/>
<g>
	<text transform="matrix(1 0 0 1 186.97754 187.54663)" class="st2 st1">10mm</text>
</g>
<g>
	<text transform="matrix(1 0 0 1 447.66016 145.37622)" class="st2 st1">Node</text>
</g>
<g>
	<text transform="matrix(1 0 0 1 450.75977 180.41968)" class="st2 st1">Internode</text>
</g>
<path class="st5" d="M434.50272,41.05764c0,0,1.58255,10.81392,1.31879,12.92395c-0.26376,2.11003-1.31879,5.01133-1.31879,5.01133
	s0,69.89485,0,73.05989c0,3.16505,0.67422,7.64888,0.67422,7.64888s-0.1467,3.69255-0.67422,5.53883
	c-0.5275,1.84628,0,61.19095,0,63.56474c0,2.37378,1.34845,7.38512,1.34845,7.38512l-0.79144,4.74757
	c0,0-1.58289,36.13431-0.79144,38.77185s1.58289,6.33011,1.58289,6.33011s-1.80447,4.4838-0.90225,7.12134
	c0.90225,2.63754,2.19135,26.11166,2.19135,26.11166"/>
<path class="st5" d="M384.51172,41.05764c0,0,1.16849,7.3345,0,8.97041c-1.16852,1.63591,0,2.31055,0,2.31055v3.99939
	c0,0,0.93478,72.68106,0,76.42029c-0.93481,3.73921-0.51935,10.28285-0.51935,10.28285s2.62265,11.78543,1.92154,14.30595
	s1.40677,44.11934,0.11914,45.75525s-2.13269,10.75024-2.13269,10.75024l1.27945,5.37514c0,0,0,38.56068,0,42.29991
	s-2.30402,6.30994-2.30402,6.30994s2.18124,6.07623,1.79172,8.64694c-0.3895,2.57071-0.3895,13.32095-0.3895,15.19058
	c0,1.8696,0.3895,9.11432,0.3895,9.11432"/>
<path class="st6" d="M427.18167,131.12236c0,0,0,7.94585-1.63589,8.41324c-1.63593,0.46741-9.34805-0.46739-14.25577,0
	c-4.90775,0.46741-15.19058-0.2337-15.65799-2.1033c-0.46741-1.86961-0.93481-6.30994-0.93481-6.30994s0-43.23472,0-51.18056
	s-0.70111-19.8646,0-21.96791s4.20663-4.44032,6.07623-4.67402s5.60883,0.4674,8.88065,0s9.34805-0.79943,11.45135-0.04916
	c2.1033,0.75027,4.20663,0.04916,6.07623,4.02208s-0.46741,34.35407,0,37.85959s0.46741,20.79941,0.46741,25.23973
	S427.18167,131.12236,427.18167,131.12236z"/>
<path class="st6" d="M426.71426,147.48145c0,0-1.40219-3.50552-4.90771-4.20662c-3.50552-0.70111-7.71213,0.2337-8.41324,0
	s-10.04916-0.03204-13.08728,1.97043c-3.03812,2.00249-4.2066,4.1058-4.44031,5.7417
	c-0.2337,1.63591-0.2337,41.36511-0.2337,46.50655c0,5.14142-1.40222,12.85356,0,13.55466
	c1.40219,0.70111,4.90771,1.86961,7.71213,1.86961s7.5174,0,7.5174,0s3.93396-0.2337,6.73837,0s9.11435,2.10332,9.11435-2.1033
	c0-4.20663-0.46741-11.50964,0-16.38823s-0.46741-29.29424,0-33.56235C427.18167,156.59579,426.71426,147.48145,426.71426,147.48145
	z"/>
<path class="st6" d="M421.84253,266.39157c0,0,2.11005,1.05502,2.63754-1.93417c0.5275-2.98923,0.87918-38.33228,1.23087-41.14566
	c0.35165-2.81337,1.58252-4.3959,0-5.27509c-1.58255-0.87918-9.31934-2.11003-12.48438-1.93419
	c-3.16504,0.17583-7.03345,0.52751-9.14346,0.87918c-2.11005,0.35167-4.3959,0.35167-5.97842,0.87918
	c-1.58255,0.52751-3.39389,1.75836-3.71906,2.63754c0,0,0.02649,5.97842-0.85269,8.44012s-0.70334,6.68178,0,11.07768
	c0.70334,4.39589,1.8812,12.48436,0.85269,16.17691c-1.02853,3.69257-2.7869,7.38513-1.02853,9.14346
	c1.75836,1.75836,6.33011,1.06464,7.56094,1.23569c1.23087,0.17102,4.92343-0.34686,7.91263,0
	C411.81989,266.9191,420.42722,265.57446,421.84253,266.39157z"/>
<path class="st5" d="M427.18167,131.12236c0,0,0,7.94585-1.63589,8.41324c-1.63593,0.46741-9.34805-0.46739-14.25577,0
	c-4.90775,0.46741-15.19058-0.2337-15.65799-2.1033c-0.46741-1.86961-0.93481-6.30994-0.93481-6.30994s0-43.23472,0-51.18056
	s-0.70111-19.8646,0-21.96791s4.20663-4.44032,6.07623-4.67402s5.60883,0.4674,8.88065,0s9.34805-0.79943,11.45135-0.04916
	c2.1033,0.75027,4.20663,0.04916,6.07623,4.02208s-0.46741,34.35407,0,37.85959s0.46741,20.79941,0.46741,25.23973
	S427.18167,131.12236,427.18167,131.12236z"/>
<path class="st5" d="M426.71426,147.48145c0,0-1.40219-3.50552-4.90771-4.20662c-3.50552-0.70111-7.71213,0.2337-8.41324,0
	s-10.04916-0.03204-13.08728,1.97043c-3.03812,2.00249-4.2066,4.1058-4.44031,5.7417
	c-0.2337,1.63591-0.2337,41.36511-0.2337,46.50655c0,5.14142-1.40222,12.85356,0,13.55466
	c1.40219,0.70111,4.90771,1.86961,7.71213,1.86961s7.5174,0,7.5174,0s3.93396-0.2337,6.73837,0s9.11435,2.10332,9.11435-2.1033
	c0-4.20663-0.46741-11.50964,0-16.38823s-0.46741-29.29424,0-33.56235C427.18167,156.59579,426.71426,147.48145,426.71426,147.48145
	z"/>
<path class="st5" d="M421.84253,266.39157c0,0,2.11005,1.05502,2.63754-1.93417c0.5275-2.98923,0.87918-38.33228,1.23087-41.14566
	c0.35165-2.81337,1.58252-4.3959,0-5.27509c-1.58255-0.87918-9.31934-2.11003-12.48438-1.93419
	c-3.16504,0.17583-7.03345,0.52751-9.14346,0.87918c-2.11005,0.35167-4.3959,0.35167-5.97842,0.87918
	c-1.58255,0.52751-3.39389,1.75836-3.71906,2.63754c0,0,0.02649,5.97842-0.85269,8.44012s-0.70334,6.68178,0,11.07768
	c0.70334,4.39589,1.8812,12.48436,0.85269,16.17691c-1.02853,3.69257-2.7869,7.38513-1.02853,9.14346
	c1.75836,1.75836,6.33011,1.06464,7.56094,1.23569c1.23087,0.17102,4.92343-0.34686,7.91263,0
	C411.81989,266.9191,420.42722,265.57446,421.84253,266.39157z"/>
<linearGradient id="SVGID_1_" gradientUnits="userSpaceOnUse" x1="410.1528" y1="301.35059" x2="410.1528" y2="271.80801">
	<stop  offset="0" style="stop-color:#FFFFFF"/>
	<stop  offset="0.36198" style="stop-color:#E3E3E3"/>
</linearGradient>
<path class="st7" d="M426.49915,300.7894c0,0-1.13989-5.38486-0.78821-8.54993c0.35165-3.16504,0.04111-8.79153-0.06738-14.06674
	c-0.10846-5.27521-0.10846-6.50607-0.8118-7.20941c-0.70337-0.70334-5.62677-0.87918-10.37433-0.87918
	c-4.74759,0-7.20929,0.35168-10.55017,0.70334c-3.34088,0.35168-7.77423-0.17584-8.89844,1.40671
	c-1.12424,1.58252-1.12424,3.51669-1.12424,4.39587s0,10.72601,0,14.59442c0,3.86838-0.17581,9.53891,0,9.60492"/>
<path class="st5" d="M426.49915,300.7894c0,0-1.13989-5.38486-0.78821-8.54993c0.35165-3.16504,0.04111-8.79153-0.06738-14.06674
	c-0.10846-5.27521-0.10846-6.50607-0.8118-7.20941c-0.70337-0.70334-5.62677-0.87918-10.37433-0.87918
	c-4.74759,0-7.20929,0.35168-10.55017,0.70334c-3.34088,0.35168-7.77423-0.17584-8.89844,1.40671
	c-1.12424,1.58252-1.12424,3.51669-1.12424,4.39587s0,10.72601,0,14.59442c0,3.86838-0.17581,9.53891,0,9.60492"/>
<text transform="matrix(1 0 0 1 397.27148 31.96997)"><tspan x="0" y="0" class="st2 st1">Cut </tspan><tspan x="-10.38672" y="14" class="st2 st1">section</tspan></text>
<line class="st4" x1="447.03867" y1="178.27074" x2="412.92648" y2="178.27074"/>
<line class="st4" x1="447.03867" y1="141.33975" x2="431.21341" y2="141.33975"/>
</svg>
